<svg width="325" height="433" viewBox="0 0 325 433" fill="none" xmlns="http://www.w3.org/2000/svg">
<g clip-path="url(#clip0_1721_2582)">
<path d="M148.71 407.63L162.04 432.06L175.34 407.69C171.01 408.18 166.7 408.5 162.41 408.5C157.9 408.5 153.28 408.17 148.71 407.63ZM111.44 339.42L142.47 396.23C143.57 396.43 144.74 396.62 145.85 396.77C151.38 397.59 156.98 398.09 162.41 398.09C167.86 398.09 173.49 397.59 179 396.77C179.85 396.65 180.69 396.47 181.56 396.35L212.56 339.58C210.86 339.8 209.09 339.92 207.16 339.92C193.83 339.92 186.74 334.4 179.72 328.84C174.94 325.15 170.17 321.41 162.46 321.41C154.75 321.41 150 325.15 145.22 328.84C138.2 334.4 131.1 339.92 117.78 339.92C115.48 339.91 113.41 339.74 111.44 339.42Z" fill="#0474BC"/>
<path d="M162.41 133.42H162.51C198.65 133.44 231.49 148.26 255.28 172.06C279 195.8 293.74 228.56 293.8 264.63V264.83V264.93C293.77 301.03 278.99 333.89 255.16 357.69C240.32 372.52 221.89 383.82 201.38 390.25L220.05 355.19C226.62 350.99 232.72 346.12 238.21 340.65C257.63 321.26 269.68 294.43 269.71 264.93V264.83V264.63C269.67 235.17 257.6 208.4 238.23 189C218.85 169.59 192.03 157.53 162.5 157.51H162.4H162.2C132.79 157.55 106.03 169.6 86.66 188.98H86.6C67.19 208.37 55.13 235.2 55.11 264.73V264.82V265.03C55.16 294.46 67.19 321.22 86.58 340.63C91.59 345.64 97.12 350.12 103.03 354.08L122 389.75C102.03 383.25 84.06 372.11 69.53 357.56C45.8 333.81 31.06 301.04 31.02 265.02V264.81V264.72C31.05 228.59 45.83 195.75 69.62 171.94L69.6 171.92C93.33 148.19 126.13 133.47 162.19 133.41" fill="#0474BC"/>
<path d="M216.75 308.14V146.1H180.48V302.18C182.91 303.58 185.13 305.2 187.35 306.79C191.66 309.91 195.98 313.06 202.98 313.06C208.98 313.07 212.99 310.76 216.75 308.14ZM144.39 310.24V154.18H108.12V316.22C111.87 318.84 115.89 321.16 121.91 321.16C128.88 321.16 133.2 318 137.52 314.87C139.74 313.27 141.94 311.67 144.39 310.24Z" fill="#0474BC"/>
<path d="M54.96 83.2209V45.6309L0 68.9609L54.96 83.2209Z" fill="#0474BC"/>
<path d="M324.84 68.96L162.41 0L96.6099 27.93L66.4699 31.75C64.4599 32.01 62.9699 33.71 62.9699 35.72V42.21V85.3V94.09C61.1199 95.37 59.8799 97.49 59.8799 99.91C59.8799 102.51 61.2799 104.76 63.3699 105.99C62.2899 106.52 61.2499 107.29 60.3099 108.31L57.8799 131.27C60.3899 133.26 63.5099 134.45 66.9499 134.45C70.3799 134.45 73.5199 133.26 76.0199 131.27L73.5899 108.31C72.6499 107.29 71.6099 106.52 70.5199 105.99C72.6099 104.76 74.0299 102.51 74.0299 99.91C74.0299 97.49 72.8099 95.38 70.9699 94.1V87.38L89.8299 92.27V76.63L90.9999 73.39C93.7399 70 96.8099 66.88 100.11 64.1C116.13 50.59 138.58 43.49 161.18 43.25C183.75 43.04 206.69 49.65 223.75 63.45C227.42 66.44 230.83 69.73 233.81 73.27L235.03 76.63V92.27L324.84 68.96Z" fill="#0474BC"/>
<path d="M100.62 78.1403C100.62 94.8103 100.62 120.48 100.62 137.15C141.82 115.8 182.96 117.08 224.22 137.15C224.22 117.15 224.22 98.1803 224.22 78.1403C194.47 42.8603 127.88 44.5303 100.62 78.1403ZM183.29 72.0703C185.96 72.0203 188.09 74.0503 188.15 76.7003C188.21 79.4903 185.98 81.7703 183.21 81.7603C180.59 81.7503 178.45 79.6203 178.44 77.0003C178.43 74.3203 180.6 72.1203 183.29 72.0703ZM141.46 66.8703C144.09 66.8803 146.25 69.0103 146.28 71.6103C146.32 74.2103 144.05 76.5203 141.4 76.5803C138.8 76.6403 136.56 74.5303 136.48 71.9403C136.41 69.2203 138.72 66.8603 141.46 66.8703ZM162.45 67.3003C158.53 70.6003 154.59 73.8903 150.6 77.1203C149.66 77.8803 149.44 78.6003 149.63 79.7803C151.2 89.7103 153.49 99.4903 155.43 109.34C156 112.22 156.02 112.21 153.18 112.23C150.06 112.26 146.93 112.22 143.82 112.35C142.34 112.41 141.96 111.92 141.97 110.48C142.04 102.71 142.02 94.9403 142.03 87.1803C142.03 86.4203 142.03 85.6703 142.03 84.3403C138.21 87.5203 134.84 90.3703 131.42 93.1603C130.32 94.0603 129.06 95.8103 127.6 94.0103C126.17 92.2503 128.05 91.3303 129.16 90.4003C139.31 81.9003 149.47 73.4203 159.63 64.9303C159.79 64.8003 159.93 64.6403 160.1 64.5103C161.19 63.6503 162.38 62.4403 163.67 63.9503C165 65.5003 163.48 66.4303 162.45 67.3003ZM197.32 99.4503C196.35 100.59 195.37 100.01 194.44 99.2303C191.15 96.4703 187.85 93.7303 184.55 90.9803C183.92 90.4503 183.28 89.9303 182.25 89.0903C182.25 96.4903 182.2 103.4 182.29 110.31C182.31 111.95 181.86 112.44 180.23 112.37C177.12 112.24 173.99 112.28 170.88 112.36C169.43 112.4 169.12 112.06 169.52 110.59C171.75 102.38 173.85 94.1303 176.09 85.9303C176.44 84.6403 176.18 83.9203 175.19 83.1203C171.9 80.4703 168.67 77.7403 165.42 75.0503C165.15 74.8303 164.89 74.6003 164.63 74.3703C163.79 73.6303 163.11 72.7703 164.02 71.7203C164.97 70.6203 165.98 71.0803 166.92 71.8703C170.58 74.9403 174.25 78.0103 177.91 81.0703C183.86 86.0403 189.81 91.0203 195.76 95.9903C196.03 96.2103 196.28 96.4403 196.54 96.6703C197.41 97.4303 198.33 98.2603 197.32 99.4503Z" fill="#0474BC"/>
</g>
<defs>
<clipPath id="clip0_1721_2582">
<rect width="324.84" height="432.06" fill="white"/>
</clipPath>
</defs>
</svg>
