<svg width="928" height="433" viewBox="0 0 928 433" fill="none" xmlns="http://www.w3.org/2000/svg">
<g clip-path="url(#clip0_1721_2600)">
<path d="M148.71 407.63L162.04 432.06L175.34 407.69C171.01 408.18 166.7 408.5 162.41 408.5C157.9 408.5 153.28 408.17 148.71 407.63ZM111.44 339.42L142.47 396.23C143.57 396.43 144.74 396.62 145.85 396.77C151.38 397.59 156.98 398.09 162.41 398.09C167.86 398.09 173.49 397.59 179 396.77C179.85 396.65 180.69 396.47 181.56 396.35L212.56 339.58C210.86 339.8 209.09 339.92 207.16 339.92C193.83 339.92 186.74 334.4 179.72 328.84C174.94 325.15 170.17 321.41 162.46 321.41C154.75 321.41 150 325.15 145.22 328.84C138.2 334.4 131.1 339.92 117.78 339.92C115.48 339.91 113.41 339.74 111.44 339.42Z" fill="#0474BC"/>
<path d="M162.41 133.42H162.51C198.65 133.44 231.49 148.26 255.28 172.06C279 195.8 293.74 228.56 293.8 264.63V264.83V264.93C293.77 301.03 278.99 333.89 255.16 357.69C240.32 372.52 221.89 383.82 201.38 390.25L220.05 355.19C226.62 350.99 232.72 346.12 238.21 340.65C257.63 321.26 269.68 294.43 269.71 264.93V264.83V264.63C269.67 235.17 257.6 208.4 238.23 189C218.85 169.59 192.03 157.53 162.5 157.51H162.4H162.2C132.79 157.55 106.03 169.6 86.66 188.98H86.6C67.19 208.37 55.13 235.2 55.11 264.73V264.82V265.03C55.16 294.46 67.19 321.22 86.58 340.63C91.59 345.64 97.12 350.12 103.03 354.08L122 389.75C102.03 383.25 84.06 372.11 69.53 357.56C45.8 333.81 31.06 301.04 31.02 265.02V264.81V264.72C31.05 228.59 45.83 195.75 69.62 171.94L69.6 171.92C93.33 148.19 126.13 133.47 162.19 133.41" fill="#0474BC"/>
<path d="M216.75 308.14V146.1H180.48V302.18C182.91 303.58 185.13 305.2 187.35 306.79C191.66 309.91 195.98 313.06 202.98 313.06C208.98 313.07 212.99 310.76 216.75 308.14ZM144.39 310.24V154.18H108.12V316.22C111.87 318.84 115.89 321.16 121.91 321.16C128.88 321.16 133.2 318 137.52 314.87C139.74 313.27 141.94 311.67 144.39 310.24Z" fill="#0474BC"/>
<path d="M54.96 83.2209V45.6309L0 68.9609L54.96 83.2209Z" fill="#0474BC"/>
<path d="M324.84 68.96L162.41 0L96.6099 27.93L66.4699 31.75C64.4599 32.01 62.9699 33.71 62.9699 35.72V42.21V85.3V94.09C61.1199 95.37 59.8799 97.49 59.8799 99.91C59.8799 102.51 61.2799 104.76 63.3699 105.99C62.2899 106.52 61.2499 107.29 60.3099 108.31L57.8799 131.27C60.3899 133.26 63.5099 134.45 66.9499 134.45C70.3799 134.45 73.5199 133.26 76.0199 131.27L73.5899 108.31C72.6499 107.29 71.6099 106.52 70.5199 105.99C72.6099 104.76 74.0299 102.51 74.0299 99.91C74.0299 97.49 72.8099 95.38 70.9699 94.1V87.38L89.8299 92.27V76.63L90.9999 73.39C93.7399 70 96.8099 66.88 100.11 64.1C116.13 50.59 138.58 43.49 161.18 43.25C183.75 43.04 206.69 49.65 223.75 63.45C227.42 66.44 230.83 69.73 233.81 73.27L235.03 76.63V92.27L324.84 68.96Z" fill="#0474BC"/>
<path d="M100.62 78.1403C100.62 94.8103 100.62 120.48 100.62 137.15C141.82 115.8 182.96 117.08 224.22 137.15C224.22 117.15 224.22 98.1803 224.22 78.1403C194.47 42.8603 127.88 44.5303 100.62 78.1403ZM183.29 72.0703C185.96 72.0203 188.09 74.0503 188.15 76.7003C188.21 79.4903 185.98 81.7703 183.21 81.7603C180.59 81.7503 178.45 79.6203 178.44 77.0003C178.43 74.3203 180.6 72.1203 183.29 72.0703ZM141.46 66.8703C144.09 66.8803 146.25 69.0103 146.28 71.6103C146.32 74.2103 144.05 76.5203 141.4 76.5803C138.8 76.6403 136.56 74.5303 136.48 71.9403C136.41 69.2203 138.72 66.8603 141.46 66.8703ZM162.45 67.3003C158.53 70.6003 154.59 73.8903 150.6 77.1203C149.66 77.8803 149.44 78.6003 149.63 79.7803C151.2 89.7103 153.49 99.4903 155.43 109.34C156 112.22 156.02 112.21 153.18 112.23C150.06 112.26 146.93 112.22 143.82 112.35C142.34 112.41 141.96 111.92 141.97 110.48C142.04 102.71 142.02 94.9403 142.03 87.1803C142.03 86.4203 142.03 85.6703 142.03 84.3403C138.21 87.5203 134.84 90.3703 131.42 93.1603C130.32 94.0603 129.06 95.8103 127.6 94.0103C126.17 92.2503 128.05 91.3303 129.16 90.4003C139.31 81.9003 149.47 73.4203 159.63 64.9303C159.79 64.8003 159.93 64.6403 160.1 64.5103C161.19 63.6503 162.38 62.4403 163.67 63.9503C165 65.5003 163.48 66.4303 162.45 67.3003ZM197.32 99.4503C196.35 100.59 195.37 100.01 194.44 99.2303C191.15 96.4703 187.85 93.7303 184.55 90.9803C183.92 90.4503 183.28 89.9303 182.25 89.0903C182.25 96.4903 182.2 103.4 182.29 110.31C182.31 111.95 181.86 112.44 180.23 112.37C177.12 112.24 173.99 112.28 170.88 112.36C169.43 112.4 169.12 112.06 169.52 110.59C171.75 102.38 173.85 94.1303 176.09 85.9303C176.44 84.6403 176.18 83.9203 175.19 83.1203C171.9 80.4703 168.67 77.7403 165.42 75.0503C165.15 74.8303 164.89 74.6003 164.63 74.3703C163.79 73.6303 163.11 72.7703 164.02 71.7203C164.97 70.6203 165.98 71.0803 166.92 71.8703C170.58 74.9403 174.25 78.0103 177.91 81.0703C183.86 86.0403 189.81 91.0203 195.76 95.9903C196.03 96.2103 196.28 96.4403 196.54 96.6703C197.41 97.4303 198.33 98.2603 197.32 99.4503Z" fill="#0474BC"/>
<path d="M358.41 307.151V112.891H499.11V156.471H408.81V187.971H487.3V229.451H408.81V263.581H500.42V307.161H358.41V307.151Z" fill="#0474BC"/>
<path d="M530.61 307.151V112.891H598.86L634.82 201.621L672.88 112.891H738.51V307.151H688.63V191.381L657.65 264.621H611.45L580.47 190.851V307.141H530.61V307.151Z" fill="#0474BC"/>
<path d="M847.45 309.78C833.97 309.78 822.47 308.2 812.93 305.06C803.39 301.91 795.51 297.89 789.3 292.98C783.09 288.08 778.14 282.83 774.47 277.23C770.8 271.63 768.08 266.38 766.33 261.48C764.58 256.58 763.18 250.98 762.13 244.68H813.06C814.46 249.58 816.34 253.65 818.7 256.89C821.06 260.13 824.69 262.97 829.59 265.42C834.49 267.87 841.14 269.09 849.54 269.09C859.86 269.09 867.08 267.12 871.2 263.18C875.31 259.24 877.37 255 877.37 250.45C877.37 246.25 875.84 242.88 872.78 240.34C869.72 237.8 864.42 235.92 856.9 234.7L830.91 230.5C819.71 228.58 809.12 225.51 799.15 221.31C789.17 217.11 781.08 211.07 774.87 203.2C768.66 195.32 765.55 185 765.55 172.22C765.55 159.97 768.65 149.21 774.87 139.93C781.08 130.66 789.96 123.39 801.51 118.14C813.06 112.89 826.8 110.26 842.72 110.26C855.14 110.26 865.73 111.7 874.48 114.59C883.23 117.48 890.49 121.24 896.27 125.88C902.05 130.52 906.68 135.38 910.18 140.45C913.68 145.53 916.3 150.38 918.06 155.02C919.81 159.66 921.21 164.86 922.26 170.64H872.65C871.42 166.62 869.76 163.33 867.66 160.8C865.56 158.27 862.45 155.99 858.34 153.97C854.23 151.96 848.67 150.95 841.67 150.95C835.02 150.95 829.73 151.91 825.79 153.84C821.85 155.77 819.05 158.13 817.39 160.93C815.72 163.73 814.9 166.53 814.9 169.33C814.9 174.41 817.3 178.12 822.12 180.49C826.93 182.85 832.84 184.65 839.84 185.87L867.14 190.33C877.99 192.08 888.01 195.19 897.2 199.65C906.39 204.11 913.78 210.24 919.38 218.03C924.98 225.82 927.78 235.58 927.78 247.3C927.78 259.38 924.63 270.14 918.33 279.59C912.03 289.04 902.93 296.44 891.03 301.77C879.12 307.11 864.6 309.78 847.45 309.78Z" fill="#0474BC"/>
<path d="M356.33 354.69V330.07H371.96V332.93H359.59V340.71H370.43V343.57H359.59V351.82H372.13V354.68H356.33V354.69Z" fill="black"/>
<path d="M375.65 354.689L381.4 345.909L375.61 337.059H379.04L383.56 344.049L388.12 337.059H391.55L385.66 345.909L391.51 354.689H388.08L383.56 347.739L379.07 354.689H375.65Z" fill="black"/>
<path d="M401.87 336.729C402.98 336.729 403.91 336.909 404.66 337.259C405.41 337.609 406.02 338.029 406.49 338.509C406.96 338.989 407.31 339.438 407.55 339.858H407.75V337.069H410.91V354.699H407.75V351.909H407.55C407.31 352.329 406.95 352.788 406.49 353.268C406.02 353.758 405.41 354.168 404.66 354.518C403.91 354.858 402.97 355.039 401.87 355.039C400.54 355.039 399.38 354.779 398.38 354.259C397.38 353.739 396.55 353.039 395.89 352.159C395.22 351.279 394.73 350.299 394.39 349.219C394.06 348.129 393.89 347.019 393.89 345.889C393.89 344.759 394.06 343.649 394.39 342.559C394.72 341.469 395.22 340.488 395.89 339.618C396.56 338.738 397.39 338.048 398.38 337.518C399.37 336.988 400.54 336.729 401.87 336.729ZM402.4 339.419C401.22 339.419 400.24 339.738 399.44 340.368C398.64 340.998 398.05 341.809 397.66 342.779C397.27 343.759 397.08 344.788 397.08 345.868C397.08 346.928 397.27 347.959 397.66 348.949C398.05 349.939 398.64 350.749 399.44 351.379C400.24 352.009 401.22 352.328 402.4 352.328C403.58 352.328 404.56 352.009 405.34 351.379C406.12 350.749 406.72 349.939 407.1 348.949C407.49 347.959 407.68 346.938 407.68 345.868C407.68 344.778 407.49 343.749 407.1 342.779C406.71 341.799 406.12 340.998 405.34 340.368C404.56 339.738 403.57 339.419 402.4 339.419Z" fill="black"/>
<path d="M415.57 354.689V337.059H418.73V339.618H418.86C419.04 339.288 419.31 338.889 419.69 338.439C420.07 337.989 420.58 337.588 421.24 337.238C421.89 336.898 422.72 336.729 423.72 336.729C425.03 336.729 426.13 337.048 427.03 337.678C427.93 338.308 428.6 339.159 429.04 340.219H429.07C429.56 339.239 430.25 338.418 431.15 337.738C432.05 337.058 433.22 336.729 434.66 336.729C436.57 336.729 438.04 337.378 439.07 338.678C440.1 339.978 440.62 341.649 440.62 343.689V354.699H437.46V343.858C437.46 342.548 437.15 341.488 436.53 340.678C435.91 339.868 435.01 339.469 433.84 339.469C432.82 339.469 432 339.748 431.4 340.298C430.79 340.848 430.35 341.538 430.09 342.358C429.83 343.178 429.69 343.999 429.69 344.819V354.699H426.53V343.858C426.53 342.548 426.23 341.488 425.62 340.678C425.01 339.868 424.11 339.469 422.91 339.469C421.89 339.469 421.07 339.748 420.47 340.298C419.86 340.848 419.42 341.549 419.16 342.379C418.9 343.209 418.76 344.028 418.76 344.828V354.708H415.57V354.689Z" fill="black"/>
<path d="M447.34 333.699C446.74 333.699 446.25 333.499 445.86 333.099C445.47 332.699 445.28 332.219 445.28 331.669C445.28 331.089 445.47 330.609 445.86 330.209C446.25 329.809 446.74 329.609 447.34 329.609C447.92 329.609 448.4 329.809 448.8 330.209C449.2 330.609 449.4 331.099 449.4 331.669C449.4 332.219 449.2 332.699 448.8 333.099C448.4 333.499 447.91 333.699 447.34 333.699ZM445.77 354.689V337.059H448.93V354.689H445.77Z" fill="black"/>
<path d="M454.06 354.689V337.059H457.22V339.619H457.42C457.57 339.349 457.84 338.989 458.2 338.519C458.56 338.049 459.09 337.639 459.78 337.269C460.47 336.899 461.33 336.719 462.37 336.719C463.66 336.719 464.75 337.009 465.66 337.599C466.57 338.189 467.26 338.979 467.74 339.979C468.22 340.979 468.45 342.099 468.45 343.339V354.679H465.29V343.539C465.29 342.369 464.96 341.389 464.31 340.609C463.66 339.829 462.71 339.449 461.47 339.449C460.47 339.449 459.66 339.699 459.04 340.199C458.42 340.699 457.96 341.349 457.66 342.159C457.36 342.969 457.21 343.829 457.21 344.739V354.689H454.06V354.689Z" fill="black"/>
<path d="M480.77 336.729C481.88 336.729 482.81 336.909 483.56 337.259C484.31 337.609 484.92 338.029 485.39 338.509C485.86 338.989 486.21 339.438 486.45 339.858H486.65V337.069H489.81V354.699H486.65V351.909H486.45C486.21 352.329 485.85 352.788 485.39 353.268C484.93 353.758 484.31 354.168 483.56 354.518C482.81 354.858 481.87 355.039 480.77 355.039C479.44 355.039 478.27 354.779 477.28 354.259C476.29 353.739 475.45 353.039 474.79 352.159C474.12 351.279 473.63 350.299 473.29 349.219C472.95 348.139 472.79 347.019 472.79 345.889C472.79 344.759 472.96 343.649 473.29 342.559C473.62 341.469 474.12 340.488 474.79 339.618C475.46 338.738 476.29 338.048 477.28 337.518C478.27 336.988 479.44 336.729 480.77 336.729ZM481.3 339.419C480.12 339.419 479.14 339.738 478.34 340.368C477.54 340.998 476.95 341.809 476.56 342.779C476.17 343.759 475.98 344.788 475.98 345.868C475.98 346.928 476.17 347.959 476.56 348.949C476.95 349.939 477.54 350.749 478.34 351.379C479.14 352.009 480.13 352.328 481.3 352.328C482.47 352.328 483.46 352.009 484.24 351.379C485.02 350.749 485.62 349.939 486 348.949C486.39 347.959 486.58 346.938 486.58 345.868C486.58 344.778 486.39 343.749 486 342.779C485.61 341.799 485.02 340.998 484.24 340.368C483.46 339.738 482.47 339.419 481.3 339.419Z" fill="black"/>
<path d="M501.29 355.028C499.47 355.028 498.1 354.558 497.18 353.628C496.26 352.698 495.8 351.388 495.8 349.708V339.658H492.64V337.068H495.8V332.648H498.96V337.068H503.25V339.658H498.96V349.708C498.96 350.598 499.2 351.248 499.69 351.658C500.18 352.068 500.89 352.278 501.82 352.278C502.31 352.278 503 352.208 503.88 352.078V354.768C502.86 354.938 502 355.028 501.29 355.028Z" fill="black"/>
<path d="M510.1 333.699C509.5 333.699 509.01 333.499 508.62 333.099C508.23 332.699 508.04 332.219 508.04 331.669C508.04 331.089 508.23 330.609 508.62 330.209C509.01 329.809 509.5 329.609 510.1 329.609C510.68 329.609 511.16 329.809 511.56 330.209C511.96 330.609 512.16 331.099 512.16 331.669C512.16 332.219 511.96 332.699 511.56 333.099C511.17 333.499 510.68 333.699 510.1 333.699ZM508.54 354.689V337.059H511.7V354.689H508.54Z" fill="black"/>
<path d="M525.17 355.03C523.29 355.03 521.7 354.59 520.41 353.72C519.12 352.85 518.15 351.71 517.48 350.31C516.81 348.91 516.48 347.44 516.48 345.89C516.48 344.31 516.81 342.84 517.48 341.45C518.15 340.06 519.12 338.93 520.41 338.06C521.7 337.19 523.28 336.75 525.17 336.75C527.06 336.75 528.64 337.19 529.93 338.06C531.22 338.94 532.19 340.07 532.86 341.45C533.53 342.84 533.86 344.32 533.86 345.89C533.86 347.44 533.53 348.92 532.86 350.31C532.19 351.71 531.22 352.84 529.93 353.72C528.64 354.59 527.06 355.03 525.17 355.03ZM525.17 352.26C526.37 352.26 527.37 351.96 528.18 351.35C528.99 350.74 529.6 349.95 530.01 348.97C530.42 347.99 530.63 346.96 530.63 345.88C530.63 344.77 530.42 343.73 530.01 342.77C529.6 341.81 528.99 341.02 528.18 340.41C527.37 339.8 526.37 339.5 525.17 339.5C523.99 339.5 523 339.8 522.18 340.41C521.36 341.02 520.74 341.81 520.33 342.77C519.92 343.73 519.71 344.77 519.71 345.88C519.71 346.97 519.91 348 520.33 348.97C520.74 349.95 521.36 350.74 522.18 351.35C523 351.96 524 352.26 525.17 352.26Z" fill="black"/>
<path d="M538.18 354.689V337.059H541.34V339.619H541.54C541.69 339.349 541.96 338.989 542.32 338.519C542.68 338.049 543.21 337.639 543.9 337.269C544.59 336.899 545.45 336.719 546.49 336.719C547.78 336.719 548.87 337.009 549.78 337.599C550.69 338.189 551.38 338.979 551.86 339.979C552.34 340.979 552.57 342.099 552.57 343.339V354.679H549.41V343.539C549.41 342.369 549.08 341.389 548.43 340.609C547.78 339.829 546.83 339.449 545.59 339.449C544.59 339.449 543.78 339.699 543.16 340.199C542.54 340.699 542.08 341.349 541.78 342.159C541.48 342.969 541.33 343.829 541.33 344.739V354.689H538.18V354.689Z" fill="black"/>
<path d="M563.69 355.029C562.34 355.029 561.22 354.839 560.35 354.459C559.47 354.079 558.78 353.609 558.27 353.049C557.76 352.489 557.38 351.919 557.14 351.349C556.9 350.779 556.71 350.119 556.57 349.369H559.76C559.92 349.969 560.12 350.459 560.38 350.849C560.64 351.239 561.03 351.579 561.58 351.879C562.12 352.179 562.85 352.329 563.76 352.329C564.8 352.329 565.61 352.079 566.19 351.579C566.77 351.079 567.06 350.469 567.06 349.729C567.06 349.089 566.83 348.579 566.38 348.199C565.93 347.819 565.28 347.529 564.43 347.329L562.03 346.759C561.14 346.539 560.31 346.239 559.54 345.859C558.76 345.479 558.14 344.969 557.66 344.309C557.18 343.649 556.95 342.839 556.95 341.859C556.95 340.349 557.52 339.119 558.65 338.149C559.78 337.179 561.26 336.699 563.07 336.699C564.29 336.699 565.3 336.869 566.1 337.209C566.9 337.549 567.54 337.979 568.01 338.489C568.48 338.999 568.84 339.509 569.07 340.019C569.3 340.529 569.49 341.129 569.62 341.819H566.56C566.43 341.309 566.24 340.889 566.01 340.569C565.78 340.249 565.43 339.959 564.96 339.699C564.49 339.439 563.87 339.319 563.1 339.319C562.04 339.319 561.26 339.569 560.77 340.049C560.28 340.539 560.04 341.069 560.04 341.649C560.04 342.199 560.27 342.649 560.72 342.999C561.17 343.339 561.77 343.599 562.5 343.779L564.93 344.349C566.44 344.699 567.68 345.289 568.67 346.099C569.66 346.909 570.15 348.069 570.15 349.579C570.15 350.559 569.9 351.459 569.39 352.289C568.88 353.119 568.15 353.779 567.19 354.269C566.23 354.779 565.07 355.029 563.69 355.029Z" fill="black"/>
<path d="M582.12 354.69V330.07H586.41L593.66 344.71L600.88 330.07H605.17V354.69H601.98V334.86L595.19 348.36H592.1L585.31 334.79V354.68H582.12V354.69Z" fill="black"/>
<path d="M617.81 336.729C618.92 336.729 619.85 336.909 620.6 337.259C621.35 337.609 621.96 338.029 622.43 338.509C622.9 338.989 623.25 339.438 623.49 339.858H623.69V337.069H626.85V354.699H623.69V351.909H623.49C623.25 352.329 622.89 352.788 622.43 353.268C621.96 353.758 621.35 354.168 620.6 354.518C619.85 354.858 618.91 355.039 617.81 355.039C616.48 355.039 615.31 354.779 614.32 354.259C613.33 353.739 612.49 353.039 611.82 352.159C611.15 351.279 610.66 350.299 610.32 349.219C609.99 348.129 609.82 347.019 609.82 345.889C609.82 344.759 609.99 343.649 610.32 342.559C610.65 341.469 611.15 340.488 611.82 339.618C612.49 338.738 613.32 338.048 614.32 337.518C615.32 336.988 616.48 336.729 617.81 336.729ZM618.34 339.419C617.16 339.419 616.18 339.738 615.38 340.368C614.58 340.998 613.99 341.809 613.6 342.779C613.21 343.759 613.02 344.788 613.02 345.868C613.02 346.928 613.21 347.959 613.6 348.949C613.99 349.939 614.58 350.749 615.38 351.379C616.18 352.009 617.17 352.328 618.34 352.328C619.51 352.328 620.5 352.009 621.28 351.379C622.06 350.749 622.66 349.939 623.04 348.949C623.43 347.959 623.62 346.938 623.62 345.868C623.62 344.778 623.43 343.749 623.04 342.779C622.65 341.809 622.06 340.998 621.28 340.368C620.5 339.738 619.52 339.419 618.34 339.419Z" fill="black"/>
<path d="M631.52 354.689V337.059H634.68V339.619H634.88C635.03 339.349 635.3 338.989 635.66 338.519C636.02 338.049 636.55 337.639 637.24 337.269C637.93 336.899 638.79 336.719 639.83 336.719C641.12 336.719 642.21 337.009 643.12 337.599C644.03 338.189 644.72 338.979 645.2 339.979C645.68 340.979 645.91 342.099 645.91 343.339V354.679H642.75V343.539C642.75 342.369 642.42 341.389 641.77 340.609C641.12 339.829 640.17 339.449 638.93 339.449C637.93 339.449 637.12 339.699 636.5 340.199C635.88 340.699 635.42 341.349 635.12 342.159C634.82 342.969 634.67 343.829 634.67 344.739V354.689H631.52V354.689Z" fill="black"/>
<path d="M658.23 336.729C659.34 336.729 660.27 336.909 661.02 337.259C661.77 337.609 662.38 338.029 662.85 338.509C663.32 338.989 663.67 339.438 663.91 339.858H664.11V337.069H667.27V354.699H664.11V351.909H663.91C663.67 352.329 663.31 352.788 662.85 353.268C662.38 353.758 661.77 354.168 661.02 354.518C660.27 354.858 659.33 355.039 658.23 355.039C656.9 355.039 655.73 354.779 654.74 354.259C653.75 353.739 652.91 353.039 652.24 352.159C651.57 351.279 651.08 350.299 650.74 349.219C650.41 348.129 650.24 347.019 650.24 345.889C650.24 344.759 650.41 343.649 650.74 342.559C651.07 341.469 651.57 340.488 652.24 339.618C652.91 338.738 653.74 338.048 654.74 337.518C655.73 336.988 656.9 336.729 658.23 336.729ZM658.76 339.419C657.58 339.419 656.6 339.738 655.8 340.368C655 340.998 654.41 341.809 654.02 342.779C653.63 343.759 653.44 344.788 653.44 345.868C653.44 346.928 653.63 347.959 654.02 348.949C654.41 349.939 655 350.749 655.8 351.379C656.6 352.009 657.59 352.328 658.76 352.328C659.93 352.328 660.92 352.009 661.7 351.379C662.48 350.749 663.08 349.939 663.46 348.949C663.85 347.959 664.04 346.938 664.04 345.868C664.04 344.778 663.85 343.749 663.46 342.779C663.07 341.809 662.48 340.998 661.7 340.368C660.92 339.738 659.93 339.419 658.76 339.419Z" fill="black"/>
<path d="M680.41 361.68C678.95 361.68 677.73 361.49 676.75 361.1C675.77 360.71 674.99 360.22 674.41 359.64C673.82 359.05 673.38 358.47 673.1 357.89C672.81 357.31 672.58 356.64 672.4 355.86H675.56C675.78 356.48 676.05 356.99 676.38 357.39C676.7 357.79 677.18 358.14 677.83 358.45C678.48 358.76 679.34 358.92 680.42 358.92C681.71 358.92 682.71 358.67 683.45 358.17C684.18 357.67 684.71 357.02 685.03 356.22C685.35 355.42 685.51 354.58 685.51 353.69V351.66H685.34C685.12 352.04 684.77 352.46 684.29 352.94C683.81 353.42 683.19 353.83 682.41 354.17C681.63 354.51 680.68 354.69 679.55 354.69C678.22 354.69 677.05 354.44 676.06 353.93C675.06 353.42 674.24 352.73 673.58 351.87C672.93 351 672.43 350.04 672.1 348.98C671.77 347.92 671.6 346.83 671.6 345.72C671.6 344.61 671.77 343.52 672.1 342.46C672.43 341.4 672.93 340.43 673.58 339.57C674.23 338.7 675.06 338.02 676.06 337.51C677.06 337 678.22 336.75 679.55 336.75C680.68 336.75 681.63 336.92 682.41 337.26C683.19 337.6 683.81 338.01 684.29 338.47C684.77 338.93 685.12 339.37 685.34 339.77H685.51V337.08H688.67V353.68C688.67 356.14 687.95 358.09 686.52 359.53C685.09 360.96 683.05 361.68 680.41 361.68ZM680.15 352C681.32 352 682.31 351.7 683.09 351.08C683.88 350.47 684.47 349.69 684.85 348.74C685.24 347.79 685.43 346.78 685.43 345.71C685.43 344.64 685.23 343.63 684.85 342.67C684.46 341.71 683.87 340.92 683.09 340.32C682.31 339.72 681.32 339.42 680.15 339.42C678.97 339.42 677.99 339.72 677.19 340.32C676.39 340.92 675.8 341.7 675.41 342.67C675.02 343.63 674.83 344.65 674.83 345.71C674.83 346.77 675.02 347.78 675.41 348.74C675.8 349.69 676.39 350.48 677.19 351.08C677.99 351.69 678.97 352 680.15 352Z" fill="black"/>
<path d="M700.67 355.03C699.23 355.03 697.98 354.77 696.93 354.25C695.88 353.73 695.01 353.03 694.34 352.14C693.66 351.25 693.16 350.27 692.83 349.2C692.5 348.12 692.33 347.02 692.33 345.89C692.33 344.78 692.49 343.68 692.81 342.6C693.13 341.51 693.63 340.53 694.31 339.64C694.99 338.75 695.84 338.05 696.87 337.53C697.9 337.01 699.13 336.75 700.55 336.75C702.06 336.75 703.39 337.09 704.54 337.78C705.69 338.47 706.6 339.49 707.27 340.84C707.94 342.19 708.27 343.89 708.27 345.93V346.86H695.53C695.6 347.86 695.83 348.77 696.24 349.6C696.65 350.43 697.23 351.1 697.99 351.6C698.75 352.1 699.64 352.35 700.68 352.35C701.59 352.35 702.33 352.2 702.89 351.9C703.46 351.6 703.9 351.25 704.24 350.85C704.58 350.45 704.86 349.95 705.11 349.35H708.07C707.85 350.13 707.59 350.79 707.31 351.35C707.02 351.9 706.6 352.46 706.05 353.03C705.5 353.6 704.79 354.07 703.92 354.46C703.03 354.83 701.96 355.03 700.67 355.03ZM695.55 344.38H705.16C705.12 343.23 704.87 342.29 704.43 341.57C703.99 340.85 703.42 340.31 702.73 339.96C702.04 339.61 701.31 339.43 700.53 339.43C699.13 339.43 697.99 339.88 697.1 340.78C696.23 341.67 695.7 342.87 695.55 344.38Z" fill="black"/>
<path d="M712.58 354.689V337.059H715.74V339.618H715.87C716.05 339.288 716.33 338.889 716.7 338.439C717.07 337.989 717.59 337.588 718.25 337.238C718.9 336.898 719.73 336.729 720.73 336.729C722.04 336.729 723.14 337.048 724.04 337.678C724.94 338.308 725.61 339.159 726.05 340.219H726.08C726.57 339.239 727.26 338.418 728.16 337.738C729.06 337.058 730.23 336.729 731.67 336.729C733.58 336.729 735.05 337.378 736.08 338.678C737.11 339.978 737.63 341.649 737.63 343.689V354.699H734.47V343.858C734.47 342.548 734.16 341.488 733.54 340.678C732.92 339.868 732.02 339.469 730.85 339.469C729.83 339.469 729.02 339.748 728.41 340.298C727.8 340.848 727.36 341.538 727.1 342.358C726.83 343.178 726.7 343.999 726.7 344.819V354.699H723.54V343.858C723.54 342.548 723.23 341.488 722.62 340.678C722.01 339.868 721.11 339.469 719.91 339.469C718.89 339.469 718.08 339.748 717.46 340.298C716.85 340.848 716.41 341.549 716.15 342.379C715.88 343.209 715.75 344.028 715.75 344.828V354.708H712.58V354.689Z" fill="black"/>
<path d="M750.3 355.03C748.86 355.03 747.61 354.77 746.56 354.25C745.51 353.73 744.64 353.03 743.97 352.14C743.29 351.25 742.79 350.27 742.46 349.2C742.13 348.12 741.96 347.02 741.96 345.89C741.96 344.78 742.12 343.68 742.44 342.6C742.76 341.51 743.26 340.53 743.94 339.64C744.62 338.75 745.47 338.05 746.5 337.53C747.53 337.01 748.76 336.75 750.18 336.75C751.69 336.75 753.02 337.09 754.17 337.78C755.32 338.47 756.23 339.49 756.9 340.84C757.57 342.19 757.9 343.89 757.9 345.93V346.86H745.16C745.23 347.86 745.46 348.77 745.87 349.6C746.28 350.43 746.86 351.1 747.62 351.6C748.38 352.1 749.27 352.35 750.31 352.35C751.22 352.35 751.96 352.2 752.52 351.9C753.09 351.6 753.53 351.25 753.87 350.85C754.21 350.45 754.49 349.95 754.74 349.35H757.7C757.48 350.13 757.22 350.79 756.94 351.35C756.65 351.9 756.23 352.46 755.68 353.03C755.13 353.6 754.42 354.07 753.55 354.46C752.66 354.83 751.59 355.03 750.3 355.03ZM745.18 344.38H754.79C754.75 343.23 754.5 342.29 754.06 341.57C753.62 340.85 753.05 340.31 752.36 339.96C751.67 339.61 750.94 339.43 750.16 339.43C748.76 339.43 747.62 339.88 746.73 340.78C745.85 341.67 745.33 342.87 745.18 344.38Z" fill="black"/>
<path d="M762.21 354.689V337.059H765.37V339.619H765.57C765.72 339.349 765.99 338.989 766.35 338.519C766.71 338.049 767.24 337.639 767.93 337.269C768.62 336.899 769.48 336.719 770.52 336.719C771.81 336.719 772.9 337.009 773.81 337.599C774.72 338.189 775.41 338.979 775.89 339.979C776.37 340.979 776.6 342.099 776.6 343.339V354.679H773.44V343.539C773.44 342.369 773.11 341.389 772.46 340.609C771.81 339.829 770.86 339.449 769.62 339.449C768.62 339.449 767.81 339.699 767.19 340.199C766.57 340.699 766.11 341.349 765.81 342.159C765.51 342.969 765.36 343.829 765.36 344.739V354.689H762.21V354.689Z" fill="black"/>
<path d="M788.09 355.028C786.27 355.028 784.9 354.558 783.98 353.628C783.06 352.698 782.6 351.388 782.6 349.708V339.658H779.44V337.068H782.6V332.648H785.76V337.068H790.05V339.658H785.76V349.708C785.76 350.598 786 351.248 786.49 351.658C786.98 352.068 787.69 352.278 788.62 352.278C789.11 352.278 789.8 352.208 790.68 352.078V354.768C789.66 354.938 788.8 355.028 788.09 355.028Z" fill="black"/>
<path d="M811.07 355.03C809.65 355.03 808.44 354.85 807.43 354.48C806.42 354.11 805.58 353.64 804.92 353.05C804.25 352.46 803.72 351.85 803.32 351.2C802.92 350.56 802.62 349.94 802.42 349.35C802.22 348.76 802.07 348.1 801.95 347.37H805.28C805.41 347.99 805.58 348.54 805.8 349C806.01 349.47 806.33 349.94 806.75 350.41C807.17 350.89 807.74 351.28 808.45 351.59C809.16 351.9 810.06 352.06 811.14 352.06C812.78 352.06 814.08 351.67 815.03 350.88C815.98 350.09 816.46 349.07 816.46 347.8C816.46 346.71 816.1 345.87 815.38 345.27C814.66 344.67 813.63 344.21 812.3 343.87L809.04 343.07C807.89 342.78 806.82 342.38 805.83 341.86C804.84 341.34 804.06 340.65 803.47 339.8C802.88 338.95 802.59 337.88 802.59 336.59C802.59 335.15 802.94 333.92 803.65 332.9C804.36 331.88 805.32 331.1 806.54 330.56C807.76 330.02 809.15 329.74 810.7 329.74C812.21 329.74 813.46 329.97 814.46 330.44C815.46 330.91 816.26 331.48 816.85 332.15C817.45 332.83 817.89 333.5 818.18 334.18C818.47 334.86 818.7 335.66 818.88 336.59H815.69C815.51 335.79 815.26 335.13 814.93 334.61C814.6 334.09 814.09 333.63 813.4 333.23C812.71 332.83 811.78 332.63 810.61 332.63C809.01 332.63 807.81 333.01 807 333.76C806.19 334.51 805.79 335.38 805.79 336.35C805.79 337.24 806.11 337.95 806.75 338.5C807.39 339.04 808.28 339.46 809.41 339.75L812.94 340.62C814.2 340.93 815.35 341.38 816.37 341.97C817.39 342.56 818.2 343.31 818.8 344.23C819.4 345.15 819.7 346.28 819.7 347.61C819.7 348.94 819.37 350.17 818.72 351.3C818.07 352.43 817.1 353.33 815.83 354.01C814.56 354.69 812.96 355.03 811.07 355.03Z" fill="black"/>
<path d="M824.11 361.179C823.6 361.179 822.99 361.139 822.28 361.049V358.359C823.01 358.429 823.59 358.459 824.01 358.459C825.32 358.459 826.39 358.189 827.22 357.639C828.05 357.099 828.76 356.199 829.33 354.959L822.51 337.059H825.8L830.89 350.829L836.01 337.059H839.34L832.52 354.719C831.66 356.939 830.54 358.569 829.18 359.609C827.82 360.649 826.13 361.179 824.11 361.179Z" fill="black"/>
<path d="M848.96 355.029C847.61 355.029 846.49 354.839 845.62 354.459C844.74 354.079 844.05 353.609 843.54 353.049C843.03 352.489 842.65 351.919 842.41 351.349C842.17 350.779 841.98 350.119 841.84 349.369H845.03C845.19 349.969 845.39 350.459 845.65 350.849C845.91 351.239 846.3 351.579 846.85 351.879C847.39 352.179 848.12 352.329 849.03 352.329C850.07 352.329 850.88 352.079 851.46 351.579C852.04 351.079 852.33 350.469 852.33 349.729C852.33 349.089 852.1 348.579 851.65 348.199C851.2 347.819 850.55 347.529 849.7 347.329L847.3 346.759C846.41 346.539 845.58 346.239 844.81 345.859C844.03 345.479 843.41 344.969 842.93 344.309C842.45 343.649 842.22 342.839 842.22 341.859C842.22 340.349 842.79 339.119 843.92 338.149C845.05 337.179 846.53 336.699 848.34 336.699C849.56 336.699 850.57 336.869 851.37 337.209C852.17 337.549 852.81 337.979 853.28 338.489C853.75 338.999 854.11 339.509 854.34 340.019C854.57 340.529 854.76 341.129 854.89 341.819H851.83C851.7 341.309 851.51 340.889 851.28 340.569C851.05 340.249 850.7 339.959 850.23 339.699C849.76 339.439 849.14 339.319 848.37 339.319C847.31 339.319 846.53 339.569 846.04 340.049C845.55 340.539 845.31 341.069 845.31 341.649C845.31 342.199 845.54 342.649 845.99 342.999C846.44 343.339 847.04 343.599 847.77 343.779L850.2 344.349C851.71 344.699 852.95 345.289 853.94 346.099C854.93 346.909 855.42 348.069 855.42 349.579C855.42 350.559 855.17 351.459 854.66 352.289C854.15 353.119 853.42 353.779 852.46 354.269C851.5 354.779 850.34 355.029 848.96 355.029Z" fill="black"/>
<path d="M866.56 355.028C864.74 355.028 863.37 354.558 862.45 353.628C861.53 352.698 861.07 351.388 861.07 349.708V339.658H857.91V337.068H861.07V332.648H864.23V337.068H868.52V339.658H864.23V349.708C864.23 350.598 864.47 351.248 864.96 351.658C865.45 352.068 866.16 352.278 867.09 352.278C867.58 352.278 868.27 352.208 869.15 352.078V354.768C868.13 354.938 867.27 355.028 866.56 355.028Z" fill="black"/>
<path d="M880.66 355.03C879.22 355.03 877.97 354.77 876.92 354.25C875.87 353.73 875 353.03 874.33 352.14C873.65 351.25 873.15 350.27 872.82 349.2C872.49 348.12 872.32 347.02 872.32 345.89C872.32 344.78 872.48 343.68 872.8 342.6C873.12 341.51 873.62 340.53 874.3 339.64C874.98 338.75 875.83 338.05 876.86 337.53C877.89 337.01 879.12 336.75 880.54 336.75C882.05 336.75 883.38 337.09 884.53 337.78C885.68 338.47 886.59 339.49 887.26 340.84C887.93 342.19 888.26 343.89 888.26 345.93V346.86H875.52C875.59 347.86 875.82 348.77 876.23 349.6C876.64 350.43 877.22 351.1 877.98 351.6C878.74 352.1 879.63 352.35 880.67 352.35C881.58 352.35 882.32 352.2 882.88 351.9C883.45 351.6 883.89 351.25 884.23 350.85C884.57 350.45 884.85 349.95 885.1 349.35H888.06C887.84 350.13 887.58 350.79 887.3 351.35C887.01 351.9 886.59 352.46 886.04 353.03C885.49 353.6 884.78 354.07 883.91 354.46C883.02 354.83 881.95 355.03 880.66 355.03ZM875.54 344.38H885.15C885.11 343.23 884.86 342.29 884.42 341.57C883.98 340.85 883.41 340.31 882.72 339.96C882.03 339.61 881.3 339.43 880.52 339.43C879.12 339.43 877.98 339.88 877.09 340.78C876.21 341.67 875.69 342.87 875.54 344.38Z" fill="black"/>
<path d="M892.57 354.689V337.059H895.73V339.618H895.86C896.04 339.288 896.32 338.889 896.69 338.439C897.06 337.989 897.58 337.588 898.24 337.238C898.89 336.898 899.72 336.729 900.72 336.729C902.03 336.729 903.13 337.048 904.03 337.678C904.93 338.308 905.6 339.159 906.04 340.219H906.07C906.56 339.239 907.25 338.418 908.15 337.738C909.05 337.058 910.22 336.729 911.66 336.729C913.57 336.729 915.04 337.378 916.07 338.678C917.1 339.978 917.62 341.649 917.62 343.689V354.699H914.46V343.858C914.46 342.548 914.15 341.488 913.53 340.678C912.91 339.868 912.01 339.469 910.84 339.469C909.82 339.469 909.01 339.748 908.4 340.298C907.79 340.848 907.35 341.538 907.09 342.358C906.82 343.178 906.69 343.999 906.69 344.819V354.699H903.53V343.858C903.53 342.548 903.22 341.488 902.61 340.678C902 339.868 901.1 339.469 899.9 339.469C898.88 339.469 898.07 339.748 897.45 340.298C896.84 340.848 896.4 341.549 896.14 342.379C895.87 343.209 895.74 344.028 895.74 344.828V354.708H892.57V354.689Z" fill="black"/>
</g>
<defs>
<clipPath id="clip0_1721_2600">
<rect width="927.78" height="432.06" fill="white"/>
</clipPath>
</defs>
</svg>
