<svg width="928" height="433" viewBox="0 0 928 433" fill="none" xmlns="http://www.w3.org/2000/svg">
<g clip-path="url(#clip0_1721_2642)">
<path d="M148.71 407.63L162.04 432.06L175.34 407.69C171.01 408.18 166.7 408.5 162.41 408.5C157.9 408.5 153.28 408.17 148.71 407.63ZM111.44 339.42L142.47 396.23C143.57 396.43 144.74 396.62 145.85 396.77C151.38 397.59 156.98 398.09 162.41 398.09C167.86 398.09 173.49 397.59 179 396.77C179.85 396.65 180.69 396.47 181.56 396.35L212.56 339.58C210.86 339.8 209.09 339.92 207.16 339.92C193.83 339.92 186.74 334.4 179.72 328.84C174.94 325.15 170.17 321.41 162.46 321.41C154.75 321.41 150 325.15 145.22 328.84C138.2 334.4 131.1 339.92 117.78 339.92C115.48 339.91 113.41 339.74 111.44 339.42Z" fill="white"/>
<path d="M162.41 133.42H162.51C198.65 133.44 231.49 148.26 255.28 172.06C279 195.8 293.74 228.56 293.8 264.63V264.83V264.93C293.77 301.03 278.99 333.89 255.16 357.69C240.32 372.52 221.89 383.82 201.38 390.25L220.05 355.19C226.62 350.99 232.72 346.12 238.21 340.65C257.63 321.26 269.68 294.43 269.71 264.93V264.83V264.63C269.67 235.17 257.6 208.4 238.23 189C218.85 169.59 192.03 157.53 162.5 157.51H162.4H162.2C132.79 157.55 106.03 169.6 86.66 188.98H86.6C67.19 208.37 55.13 235.2 55.11 264.73V264.82V265.03C55.16 294.46 67.19 321.22 86.58 340.63C91.59 345.64 97.12 350.12 103.03 354.08L122 389.75C102.03 383.25 84.06 372.11 69.53 357.56C45.8 333.81 31.06 301.04 31.02 265.02V264.81V264.72C31.05 228.59 45.83 195.75 69.62 171.94L69.6 171.92C93.33 148.19 126.13 133.47 162.19 133.41" fill="white"/>
<path d="M216.75 308.14V146.1H180.48V302.18C182.91 303.58 185.13 305.2 187.35 306.79C191.66 309.91 195.98 313.06 202.98 313.06C208.98 313.07 212.99 310.76 216.75 308.14ZM144.39 310.24V154.18H108.12V316.22C111.87 318.84 115.89 321.16 121.91 321.16C128.88 321.16 133.2 318 137.52 314.87C139.74 313.27 141.94 311.67 144.39 310.24Z" fill="white"/>
<path d="M54.96 83.2209V45.6309L0 68.9609L54.96 83.2209Z" fill="white"/>
<path d="M324.84 68.96L162.41 0L96.6099 27.93L66.4699 31.75C64.4599 32.01 62.9699 33.71 62.9699 35.72V42.21V85.3V94.09C61.1199 95.37 59.8799 97.49 59.8799 99.91C59.8799 102.51 61.2799 104.76 63.3699 105.99C62.2899 106.52 61.2499 107.29 60.3099 108.31L57.8799 131.27C60.3899 133.26 63.5099 134.45 66.9499 134.45C70.3799 134.45 73.5199 133.26 76.0199 131.27L73.5899 108.31C72.6499 107.29 71.6099 106.52 70.5199 105.99C72.6099 104.76 74.0299 102.51 74.0299 99.91C74.0299 97.49 72.8099 95.38 70.9699 94.1V87.38L89.8299 92.27V76.63L90.9999 73.39C93.7399 70 96.8099 66.88 100.11 64.1C116.13 50.59 138.58 43.49 161.18 43.25C183.75 43.04 206.69 49.65 223.75 63.45C227.42 66.44 230.83 69.73 233.81 73.27L235.03 76.63V92.27L324.84 68.96Z" fill="white"/>
<path d="M100.62 78.1403C100.62 94.8103 100.62 120.48 100.62 137.15C141.82 115.8 182.96 117.08 224.22 137.15C224.22 117.15 224.22 98.1803 224.22 78.1403C194.47 42.8603 127.88 44.5303 100.62 78.1403ZM183.29 72.0703C185.96 72.0203 188.09 74.0503 188.15 76.7003C188.21 79.4903 185.98 81.7703 183.21 81.7603C180.59 81.7503 178.45 79.6203 178.44 77.0003C178.43 74.3203 180.6 72.1203 183.29 72.0703ZM141.46 66.8703C144.09 66.8803 146.25 69.0103 146.28 71.6103C146.32 74.2103 144.05 76.5203 141.4 76.5803C138.8 76.6403 136.56 74.5303 136.48 71.9403C136.41 69.2203 138.72 66.8603 141.46 66.8703ZM162.45 67.3003C158.53 70.6003 154.59 73.8903 150.6 77.1203C149.66 77.8803 149.44 78.6003 149.63 79.7803C151.2 89.7103 153.49 99.4903 155.43 109.34C156 112.22 156.02 112.21 153.18 112.23C150.06 112.26 146.93 112.22 143.82 112.35C142.34 112.41 141.96 111.92 141.97 110.48C142.04 102.71 142.02 94.9403 142.03 87.1803C142.03 86.4203 142.03 85.6703 142.03 84.3403C138.21 87.5203 134.84 90.3703 131.42 93.1603C130.32 94.0603 129.06 95.8103 127.6 94.0103C126.17 92.2503 128.05 91.3303 129.16 90.4003C139.31 81.9003 149.47 73.4203 159.63 64.9303C159.79 64.8003 159.93 64.6403 160.1 64.5103C161.19 63.6503 162.38 62.4403 163.67 63.9503C165 65.5003 163.48 66.4303 162.45 67.3003ZM197.32 99.4503C196.35 100.59 195.37 100.01 194.44 99.2303C191.15 96.4703 187.85 93.7303 184.55 90.9803C183.92 90.4503 183.28 89.9303 182.25 89.0903C182.25 96.4903 182.2 103.4 182.29 110.31C182.31 111.95 181.86 112.44 180.23 112.37C177.12 112.24 173.99 112.28 170.88 112.36C169.43 112.4 169.12 112.06 169.52 110.59C171.75 102.38 173.85 94.1303 176.09 85.9303C176.44 84.6403 176.18 83.9203 175.19 83.1203C171.9 80.4703 168.67 77.7403 165.42 75.0503C165.15 74.8303 164.89 74.6003 164.63 74.3703C163.79 73.6303 163.11 72.7703 164.02 71.7203C164.97 70.6203 165.98 71.0803 166.92 71.8703C170.58 74.9403 174.25 78.0103 177.91 81.0703C183.86 86.0403 189.81 91.0203 195.76 95.9903C196.03 96.2103 196.28 96.4403 196.54 96.6703C197.41 97.4303 198.33 98.2603 197.32 99.4503Z" fill="white"/>
<path d="M358.41 307.151V112.891H499.11V156.471H408.81V187.971H487.3V229.451H408.81V263.581H500.43V307.161H358.41V307.151Z" fill="white"/>
<path d="M530.61 307.151V112.891H598.86L634.82 201.621L672.88 112.891H738.51V307.151H688.63V191.381L657.65 264.621H611.45L580.47 190.861V307.151H530.61V307.151Z" fill="white"/>
<path d="M847.45 309.77C833.97 309.77 822.47 308.19 812.93 305.05C803.39 301.9 795.51 297.88 789.3 292.97C783.09 288.07 778.14 282.82 774.47 277.22C770.8 271.62 768.08 266.37 766.33 261.47C764.58 256.57 763.18 250.97 762.13 244.67H813.06C814.46 249.57 816.34 253.64 818.7 256.88C821.06 260.12 824.69 262.96 829.59 265.41C834.49 267.86 841.14 269.08 849.54 269.08C859.86 269.08 867.08 267.11 871.2 263.17C875.31 259.23 877.37 254.99 877.37 250.44C877.37 246.24 875.84 242.87 872.78 240.33C869.72 237.79 864.42 235.91 856.9 234.69L830.91 230.49C819.71 228.57 809.12 225.5 799.15 221.3C789.18 217.1 781.08 211.06 774.87 203.19C768.66 195.31 765.55 184.99 765.55 172.21C765.55 159.96 768.65 149.2 774.87 139.92C781.08 130.65 789.96 123.38 801.51 118.13C813.06 112.88 826.8 110.25 842.72 110.25C855.14 110.25 865.73 111.69 874.48 114.58C883.23 117.47 890.49 121.23 896.27 125.87C902.05 130.51 906.68 135.37 910.18 140.44C913.68 145.52 916.3 150.37 918.06 155.01C919.81 159.65 921.21 164.85 922.26 170.63H872.65C871.42 166.61 869.76 163.32 867.66 160.79C865.56 158.26 862.45 155.98 858.34 153.96C854.23 151.95 848.67 150.94 841.67 150.94C835.02 150.94 829.73 151.9 825.79 153.83C821.85 155.76 819.05 158.12 817.39 160.92C815.72 163.72 814.9 166.52 814.9 169.32C814.9 174.4 817.3 178.11 822.12 180.48C826.93 182.84 832.84 184.64 839.84 185.86L867.14 190.32C877.99 192.07 888.01 195.18 897.2 199.64C906.39 204.1 913.78 210.23 919.38 218.02C924.98 225.81 927.78 235.57 927.78 247.29C927.78 259.37 924.63 270.13 918.33 279.58C912.03 289.03 902.93 296.43 891.03 301.76C879.12 307.11 864.6 309.77 847.45 309.77Z" fill="white"/>
<path d="M356.33 354.69V330.07H371.96V332.93H359.59V340.71H370.43V343.57H359.59V351.82H372.13V354.68H356.33V354.69Z" fill="white"/>
<path d="M375.65 354.689L381.4 345.909L375.61 337.059H379.04L383.56 344.049L388.12 337.059H391.55L385.66 345.909L391.51 354.689H388.08L383.56 347.739L379.07 354.689H375.65Z" fill="white"/>
<path d="M401.87 336.729C402.98 336.729 403.91 336.909 404.66 337.259C405.41 337.609 406.02 338.029 406.49 338.509C406.96 338.989 407.31 339.438 407.55 339.858H407.75V337.069H410.91V354.699H407.75V351.909H407.55C407.31 352.329 406.95 352.788 406.49 353.268C406.02 353.758 405.41 354.168 404.66 354.518C403.91 354.858 402.97 355.039 401.87 355.039C400.54 355.039 399.38 354.779 398.38 354.259C397.38 353.739 396.55 353.039 395.88 352.159C395.21 351.279 394.72 350.299 394.38 349.219C394.05 348.129 393.88 347.019 393.88 345.889C393.88 344.759 394.05 343.649 394.38 342.559C394.71 341.469 395.21 340.488 395.88 339.618C396.55 338.748 397.38 338.048 398.38 337.518C399.37 336.988 400.54 336.729 401.87 336.729ZM402.4 339.419C401.22 339.419 400.24 339.738 399.44 340.368C398.64 340.998 398.05 341.809 397.66 342.779C397.27 343.759 397.08 344.788 397.08 345.868C397.08 346.928 397.27 347.959 397.66 348.949C398.05 349.939 398.64 350.749 399.44 351.379C400.24 352.009 401.22 352.328 402.4 352.328C403.58 352.328 404.56 352.009 405.34 351.379C406.12 350.749 406.72 349.939 407.1 348.949C407.49 347.959 407.68 346.938 407.68 345.868C407.68 344.778 407.49 343.749 407.1 342.779C406.71 341.809 406.12 340.998 405.34 340.368C404.56 339.738 403.57 339.419 402.4 339.419Z" fill="white"/>
<path d="M415.57 354.689V337.059H418.73V339.618H418.86C419.04 339.288 419.31 338.889 419.69 338.439C420.07 337.989 420.58 337.588 421.24 337.238C421.89 336.898 422.72 336.729 423.72 336.729C425.03 336.729 426.13 337.048 427.03 337.678C427.93 338.308 428.6 339.159 429.04 340.219H429.07C429.56 339.239 430.25 338.418 431.15 337.738C432.05 337.058 433.22 336.729 434.66 336.729C436.57 336.729 438.04 337.378 439.07 338.678C440.1 339.978 440.62 341.649 440.62 343.689V354.699H437.46V343.858C437.46 342.548 437.15 341.488 436.53 340.678C435.91 339.868 435.01 339.469 433.84 339.469C432.82 339.469 432 339.748 431.39 340.298C430.78 340.848 430.34 341.538 430.08 342.358C429.81 343.178 429.68 343.999 429.68 344.819V354.699H426.52V343.858C426.52 342.548 426.22 341.488 425.6 340.678C424.98 339.868 424.09 339.469 422.89 339.469C421.87 339.469 421.06 339.748 420.45 340.298C419.84 340.848 419.4 341.549 419.14 342.379C418.87 343.209 418.74 344.028 418.74 344.828V354.708H415.57V354.689Z" fill="white"/>
<path d="M447.34 333.699C446.74 333.699 446.25 333.499 445.86 333.099C445.47 332.699 445.28 332.219 445.28 331.669C445.28 331.089 445.47 330.609 445.86 330.209C446.25 329.809 446.74 329.609 447.34 329.609C447.92 329.609 448.4 329.809 448.8 330.209C449.2 330.609 449.4 331.099 449.4 331.669C449.4 332.219 449.2 332.699 448.8 333.099C448.4 333.499 447.91 333.699 447.34 333.699ZM445.77 354.689V337.059H448.93V354.689H445.77Z" fill="white"/>
<path d="M454.06 354.689V337.059H457.22V339.619H457.42C457.57 339.349 457.84 338.989 458.2 338.519C458.57 338.049 459.09 337.639 459.78 337.269C460.47 336.899 461.33 336.719 462.37 336.719C463.66 336.719 464.75 337.009 465.66 337.599C466.57 338.189 467.26 338.979 467.74 339.979C468.22 340.979 468.45 342.099 468.45 343.339V354.679H465.29V343.539C465.29 342.369 464.96 341.389 464.31 340.609C463.66 339.829 462.71 339.449 461.47 339.449C460.47 339.449 459.66 339.699 459.04 340.199C458.42 340.699 457.96 341.349 457.66 342.159C457.36 342.969 457.21 343.829 457.21 344.739V354.689H454.06V354.689Z" fill="white"/>
<path d="M480.77 336.729C481.88 336.729 482.81 336.909 483.56 337.259C484.31 337.609 484.92 338.029 485.39 338.509C485.86 338.989 486.21 339.438 486.45 339.858H486.65V337.069H489.81V354.699H486.65V351.909H486.45C486.21 352.329 485.85 352.788 485.39 353.268C484.92 353.758 484.31 354.168 483.56 354.518C482.81 354.858 481.87 355.039 480.77 355.039C479.44 355.039 478.28 354.779 477.28 354.259C476.28 353.739 475.45 353.039 474.78 352.159C474.11 351.279 473.62 350.299 473.28 349.219C472.95 348.129 472.78 347.019 472.78 345.889C472.78 344.759 472.95 343.649 473.28 342.559C473.61 341.469 474.11 340.488 474.78 339.618C475.45 338.748 476.28 338.048 477.28 337.518C478.27 336.988 479.44 336.729 480.77 336.729ZM481.3 339.419C480.12 339.419 479.14 339.738 478.34 340.368C477.54 340.998 476.95 341.809 476.56 342.779C476.17 343.759 475.98 344.788 475.98 345.868C475.98 346.928 476.17 347.959 476.56 348.949C476.95 349.939 477.54 350.749 478.34 351.379C479.14 352.009 480.12 352.328 481.3 352.328C482.48 352.328 483.46 352.009 484.24 351.379C485.02 350.749 485.62 349.939 486 348.949C486.39 347.959 486.58 346.938 486.58 345.868C486.58 344.778 486.39 343.749 486 342.779C485.61 341.809 485.02 340.998 484.24 340.368C483.46 339.738 482.47 339.419 481.3 339.419Z" fill="white"/>
<path d="M501.29 355.019C499.47 355.019 498.1 354.549 497.18 353.619C496.26 352.689 495.8 351.379 495.8 349.699V339.649H492.64V337.059H495.8V332.639H498.96V337.059H503.25V339.649H498.96V349.699C498.96 350.589 499.2 351.239 499.69 351.649C500.18 352.059 500.89 352.269 501.82 352.269C502.31 352.269 503 352.199 503.88 352.069V354.759C502.86 354.939 502 355.019 501.29 355.019Z" fill="white"/>
<path d="M510.1 333.699C509.5 333.699 509.01 333.499 508.62 333.099C508.23 332.699 508.04 332.219 508.04 331.669C508.04 331.089 508.23 330.609 508.62 330.209C509.01 329.809 509.5 329.609 510.1 329.609C510.68 329.609 511.16 329.809 511.56 330.209C511.96 330.609 512.16 331.099 512.16 331.669C512.16 332.219 511.96 332.699 511.56 333.099C511.17 333.499 510.68 333.699 510.1 333.699ZM508.54 354.689V337.059H511.7V354.689H508.54Z" fill="white"/>
<path d="M525.17 355.02C523.29 355.02 521.7 354.58 520.41 353.71C519.12 352.84 518.15 351.7 517.48 350.3C516.81 348.9 516.48 347.43 516.48 345.88C516.48 344.3 516.81 342.83 517.48 341.44C518.15 340.05 519.12 338.92 520.41 338.05C521.7 337.18 523.28 336.74 525.17 336.74C527.06 336.74 528.64 337.18 529.93 338.05C531.22 338.93 532.19 340.06 532.86 341.44C533.53 342.83 533.86 344.31 533.86 345.88C533.86 347.43 533.53 348.91 532.86 350.3C532.19 351.7 531.22 352.83 529.93 353.71C528.64 354.59 527.06 355.02 525.17 355.02ZM525.17 352.26C526.37 352.26 527.37 351.96 528.18 351.35C528.99 350.74 529.6 349.95 530.01 348.97C530.42 347.99 530.63 346.96 530.63 345.88C530.63 344.77 530.42 343.73 530.01 342.77C529.6 341.81 528.99 341.02 528.18 340.41C527.37 339.8 526.37 339.5 525.17 339.5C523.99 339.5 523 339.8 522.18 340.41C521.36 341.02 520.74 341.81 520.33 342.77C519.92 343.73 519.71 344.77 519.71 345.88C519.71 346.97 519.91 348 520.33 348.97C520.74 349.95 521.36 350.74 522.18 351.35C523 351.96 524 352.26 525.17 352.26Z" fill="white"/>
<path d="M538.18 354.689V337.059H541.34V339.619H541.54C541.69 339.349 541.96 338.989 542.32 338.519C542.68 338.049 543.21 337.639 543.9 337.269C544.59 336.899 545.45 336.719 546.49 336.719C547.78 336.719 548.87 337.009 549.78 337.599C550.69 338.189 551.38 338.979 551.86 339.979C552.34 340.979 552.57 342.099 552.57 343.339V354.679H549.41V343.539C549.41 342.369 549.08 341.389 548.43 340.609C547.78 339.829 546.83 339.449 545.59 339.449C544.59 339.449 543.78 339.699 543.16 340.199C542.54 340.699 542.08 341.349 541.78 342.159C541.48 342.969 541.33 343.829 541.33 344.739V354.689H538.18V354.689Z" fill="white"/>
<path d="M563.69 355.019C562.34 355.019 561.22 354.829 560.35 354.449C559.47 354.069 558.78 353.599 558.27 353.039C557.76 352.479 557.38 351.909 557.14 351.339C556.9 350.769 556.71 350.109 556.57 349.359H559.76C559.92 349.959 560.12 350.449 560.38 350.839C560.64 351.229 561.03 351.569 561.58 351.869C562.12 352.169 562.85 352.319 563.76 352.319C564.8 352.319 565.61 352.069 566.19 351.569C566.77 351.069 567.06 350.459 567.06 349.719C567.06 349.079 566.83 348.569 566.38 348.189C565.93 347.809 565.28 347.519 564.43 347.319L562.03 346.749C561.14 346.529 560.31 346.229 559.54 345.849C558.76 345.469 558.14 344.959 557.66 344.299C557.18 343.639 556.95 342.829 556.95 341.849C556.95 340.339 557.52 339.109 558.65 338.139C559.78 337.169 561.26 336.689 563.07 336.689C564.29 336.689 565.3 336.859 566.1 337.199C566.9 337.539 567.54 337.969 568.01 338.479C568.48 338.989 568.84 339.499 569.07 340.009C569.3 340.519 569.49 341.119 569.62 341.809H566.56C566.43 341.299 566.24 340.879 566.01 340.559C565.78 340.239 565.43 339.949 564.96 339.689C564.49 339.429 563.87 339.309 563.1 339.309C562.04 339.309 561.26 339.559 560.77 340.039C560.28 340.529 560.04 341.059 560.04 341.639C560.04 342.189 560.27 342.639 560.72 342.989C561.17 343.329 561.77 343.589 562.5 343.769L564.93 344.339C566.44 344.689 567.68 345.279 568.67 346.089C569.66 346.899 570.15 348.059 570.15 349.569C570.15 350.549 569.9 351.449 569.39 352.279C568.88 353.109 568.15 353.769 567.19 354.259C566.23 354.779 565.07 355.019 563.69 355.019Z" fill="white"/>
<path d="M582.12 354.69V330.07H586.41L593.66 344.71L600.88 330.07H605.17V354.69H601.98V334.86L595.19 348.36H592.1L585.31 334.79V354.68H582.12V354.69Z" fill="white"/>
<path d="M617.81 336.729C618.92 336.729 619.85 336.909 620.6 337.259C621.35 337.609 621.96 338.029 622.43 338.509C622.9 338.989 623.25 339.438 623.49 339.858H623.69V337.069H626.85V354.699H623.69V351.909H623.49C623.25 352.329 622.89 352.788 622.43 353.268C621.96 353.758 621.35 354.168 620.6 354.518C619.85 354.858 618.91 355.039 617.81 355.039C616.48 355.039 615.31 354.779 614.32 354.259C613.33 353.739 612.49 353.039 611.82 352.159C611.15 351.279 610.66 350.299 610.32 349.219C609.99 348.129 609.82 347.019 609.82 345.889C609.82 344.759 609.99 343.649 610.32 342.559C610.65 341.469 611.15 340.488 611.82 339.618C612.49 338.738 613.32 338.048 614.32 337.518C615.32 336.988 616.48 336.729 617.81 336.729ZM618.34 339.419C617.16 339.419 616.18 339.738 615.38 340.368C614.58 340.998 613.99 341.809 613.6 342.779C613.21 343.759 613.02 344.788 613.02 345.868C613.02 346.928 613.21 347.959 613.6 348.949C613.99 349.939 614.58 350.749 615.38 351.379C616.18 352.009 617.17 352.328 618.34 352.328C619.51 352.328 620.5 352.009 621.28 351.379C622.06 350.749 622.66 349.939 623.04 348.949C623.43 347.959 623.62 346.938 623.62 345.868C623.62 344.778 623.43 343.749 623.04 342.779C622.65 341.809 622.06 340.998 621.28 340.368C620.5 339.738 619.52 339.419 618.34 339.419Z" fill="white"/>
<path d="M631.52 354.689V337.059H634.68V339.619H634.88C635.03 339.349 635.3 338.989 635.66 338.519C636.02 338.049 636.55 337.639 637.24 337.269C637.93 336.899 638.79 336.719 639.83 336.719C641.12 336.719 642.21 337.009 643.12 337.599C644.03 338.189 644.72 338.979 645.2 339.979C645.68 340.979 645.91 342.099 645.91 343.339V354.679H642.75V343.539C642.75 342.369 642.42 341.389 641.77 340.609C641.12 339.829 640.17 339.449 638.93 339.449C637.93 339.449 637.12 339.699 636.5 340.199C635.88 340.699 635.42 341.349 635.12 342.159C634.82 342.969 634.67 343.829 634.67 344.739V354.689H631.52V354.689Z" fill="white"/>
<path d="M658.23 336.729C659.34 336.729 660.27 336.909 661.02 337.259C661.77 337.609 662.38 338.029 662.85 338.509C663.32 338.989 663.67 339.438 663.91 339.858H664.11V337.069H667.27V354.699H664.11V351.909H663.91C663.67 352.329 663.31 352.788 662.85 353.268C662.38 353.758 661.77 354.168 661.02 354.518C660.27 354.858 659.33 355.039 658.23 355.039C656.9 355.039 655.73 354.779 654.74 354.259C653.75 353.739 652.91 353.039 652.24 352.159C651.57 351.279 651.08 350.299 650.74 349.219C650.41 348.129 650.24 347.019 650.24 345.889C650.24 344.759 650.41 343.649 650.74 342.559C651.07 341.469 651.57 340.488 652.24 339.618C652.91 338.738 653.74 338.048 654.74 337.518C655.73 336.988 656.9 336.729 658.23 336.729ZM658.76 339.419C657.58 339.419 656.6 339.738 655.8 340.368C655 340.998 654.41 341.809 654.02 342.779C653.63 343.759 653.44 344.788 653.44 345.868C653.44 346.928 653.63 347.959 654.02 348.949C654.41 349.939 655 350.749 655.8 351.379C656.6 352.009 657.59 352.328 658.76 352.328C659.93 352.328 660.92 352.009 661.7 351.379C662.48 350.749 663.08 349.939 663.46 348.949C663.85 347.959 664.04 346.938 664.04 345.868C664.04 344.778 663.85 343.749 663.46 342.779C663.07 341.809 662.48 340.998 661.7 340.368C660.92 339.738 659.93 339.419 658.76 339.419Z" fill="white"/>
<path d="M680.41 361.68C678.95 361.68 677.73 361.49 676.75 361.1C675.77 360.71 674.99 360.22 674.41 359.64C673.82 359.05 673.38 358.47 673.1 357.89C672.81 357.31 672.58 356.64 672.4 355.86H675.56C675.78 356.48 676.05 356.99 676.38 357.39C676.7 357.79 677.18 358.14 677.83 358.45C678.48 358.76 679.34 358.92 680.42 358.92C681.71 358.92 682.71 358.67 683.45 358.17C684.18 357.67 684.71 357.02 685.03 356.22C685.35 355.42 685.51 354.58 685.51 353.69V351.66H685.34C685.12 352.04 684.77 352.46 684.29 352.94C683.81 353.42 683.19 353.83 682.41 354.17C681.63 354.51 680.68 354.69 679.55 354.69C678.22 354.69 677.05 354.44 676.06 353.93C675.06 353.42 674.24 352.73 673.58 351.87C672.93 351 672.43 350.04 672.1 348.98C671.77 347.92 671.6 346.83 671.6 345.72C671.6 344.61 671.77 343.52 672.1 342.46C672.43 341.4 672.93 340.43 673.58 339.57C674.23 338.7 675.06 338.02 676.06 337.51C677.06 337 678.22 336.75 679.55 336.75C680.68 336.75 681.63 336.92 682.41 337.26C683.19 337.6 683.81 338.01 684.29 338.47C684.77 338.93 685.12 339.37 685.34 339.77H685.51V337.08H688.67V353.68C688.67 356.14 687.95 358.09 686.52 359.53C685.09 360.96 683.05 361.68 680.41 361.68ZM680.15 352C681.32 352 682.31 351.7 683.09 351.08C683.88 350.47 684.47 349.69 684.85 348.74C685.24 347.79 685.43 346.78 685.43 345.71C685.43 344.64 685.23 343.63 684.85 342.67C684.46 341.71 683.87 340.92 683.09 340.32C682.31 339.72 681.32 339.42 680.15 339.42C678.97 339.42 677.99 339.72 677.19 340.32C676.39 340.92 675.8 341.7 675.41 342.67C675.02 343.63 674.83 344.65 674.83 345.71C674.83 346.77 675.02 347.78 675.41 348.74C675.8 349.69 676.39 350.48 677.19 351.08C677.99 351.69 678.97 352 680.15 352Z" fill="white"/>
<path d="M700.67 355.02C699.23 355.02 697.98 354.76 696.93 354.24C695.88 353.72 695.01 353.02 694.34 352.13C693.66 351.24 693.16 350.26 692.83 349.19C692.5 348.11 692.33 347.01 692.33 345.88C692.33 344.77 692.49 343.67 692.81 342.59C693.13 341.5 693.63 340.52 694.31 339.63C694.99 338.74 695.84 338.04 696.87 337.52C697.9 337 699.13 336.74 700.55 336.74C702.06 336.74 703.39 337.08 704.54 337.77C705.69 338.46 706.6 339.48 707.27 340.83C707.94 342.18 708.27 343.88 708.27 345.92V346.85H695.53C695.6 347.85 695.83 348.76 696.24 349.59C696.65 350.42 697.23 351.09 697.99 351.59C698.75 352.09 699.64 352.34 700.68 352.34C701.59 352.34 702.33 352.19 702.89 351.89C703.46 351.59 703.9 351.24 704.24 350.84C704.58 350.44 704.86 349.94 705.11 349.34H708.07C707.85 350.12 707.59 350.78 707.31 351.34C707.02 351.89 706.6 352.45 706.05 353.02C705.5 353.59 704.79 354.06 703.92 354.45C703.03 354.83 701.96 355.02 700.67 355.02ZM695.55 344.38H705.16C705.12 343.23 704.87 342.29 704.43 341.57C703.99 340.85 703.42 340.31 702.73 339.96C702.04 339.61 701.31 339.43 700.53 339.43C699.13 339.43 697.99 339.88 697.1 340.78C696.23 341.67 695.7 342.87 695.55 344.38Z" fill="white"/>
<path d="M712.58 354.689V337.059H715.74V339.618H715.87C716.05 339.288 716.33 338.889 716.7 338.439C717.07 337.989 717.59 337.588 718.25 337.238C718.9 336.898 719.73 336.729 720.73 336.729C722.04 336.729 723.14 337.048 724.04 337.678C724.94 338.308 725.61 339.159 726.05 340.219H726.08C726.57 339.239 727.26 338.418 728.16 337.738C729.06 337.058 730.23 336.729 731.67 336.729C733.58 336.729 735.05 337.378 736.08 338.678C737.11 339.978 737.63 341.649 737.63 343.689V354.699H734.47V343.858C734.47 342.548 734.16 341.488 733.54 340.678C732.92 339.868 732.02 339.469 730.85 339.469C729.83 339.469 729.02 339.748 728.41 340.298C727.8 340.848 727.36 341.538 727.1 342.358C726.83 343.178 726.7 343.999 726.7 344.819V354.699H723.54V343.858C723.54 342.548 723.23 341.488 722.62 340.678C722.01 339.868 721.11 339.469 719.91 339.469C718.89 339.469 718.08 339.748 717.46 340.298C716.85 340.848 716.41 341.549 716.15 342.379C715.88 343.209 715.75 344.028 715.75 344.828V354.708H712.58V354.689Z" fill="white"/>
<path d="M750.3 355.02C748.86 355.02 747.61 354.76 746.56 354.24C745.51 353.72 744.64 353.02 743.97 352.13C743.29 351.24 742.79 350.26 742.46 349.19C742.13 348.11 741.96 347.01 741.96 345.88C741.96 344.77 742.12 343.67 742.44 342.59C742.76 341.5 743.26 340.52 743.94 339.63C744.62 338.74 745.47 338.04 746.5 337.52C747.53 337 748.76 336.74 750.18 336.74C751.69 336.74 753.02 337.08 754.17 337.77C755.32 338.46 756.23 339.48 756.9 340.83C757.57 342.18 757.9 343.88 757.9 345.92V346.85H745.16C745.23 347.85 745.46 348.76 745.87 349.59C746.28 350.42 746.86 351.09 747.62 351.59C748.38 352.09 749.27 352.34 750.31 352.34C751.22 352.34 751.96 352.19 752.52 351.89C753.09 351.59 753.53 351.24 753.87 350.84C754.21 350.44 754.49 349.94 754.74 349.34H757.7C757.48 350.12 757.22 350.78 756.94 351.34C756.65 351.89 756.23 352.45 755.68 353.02C755.13 353.59 754.42 354.06 753.55 354.45C752.66 354.83 751.59 355.02 750.3 355.02ZM745.18 344.38H754.79C754.75 343.23 754.5 342.29 754.06 341.57C753.62 340.85 753.05 340.31 752.36 339.96C751.67 339.61 750.94 339.43 750.16 339.43C748.76 339.43 747.62 339.88 746.73 340.78C745.85 341.67 745.33 342.87 745.18 344.38Z" fill="white"/>
<path d="M762.21 354.689V337.059H765.37V339.619H765.57C765.72 339.349 765.99 338.989 766.35 338.519C766.71 338.049 767.24 337.639 767.93 337.269C768.62 336.899 769.48 336.719 770.52 336.719C771.81 336.719 772.9 337.009 773.81 337.599C774.72 338.189 775.41 338.979 775.89 339.979C776.37 340.979 776.6 342.099 776.6 343.339V354.679H773.44V343.539C773.44 342.369 773.11 341.389 772.46 340.609C771.81 339.829 770.86 339.449 769.62 339.449C768.62 339.449 767.81 339.699 767.19 340.199C766.57 340.699 766.11 341.349 765.81 342.159C765.51 342.969 765.36 343.829 765.36 344.739V354.689H762.21V354.689Z" fill="white"/>
<path d="M788.09 355.019C786.27 355.019 784.9 354.549 783.98 353.619C783.06 352.689 782.6 351.379 782.6 349.699V339.649H779.44V337.059H782.6V332.639H785.76V337.059H790.05V339.649H785.76V349.699C785.76 350.589 786 351.239 786.49 351.649C786.98 352.059 787.69 352.269 788.62 352.269C789.11 352.269 789.8 352.199 790.68 352.069V354.759C789.66 354.939 788.8 355.019 788.09 355.019Z" fill="white"/>
<path d="M811.07 355.018C809.65 355.018 808.44 354.839 807.43 354.469C806.42 354.099 805.58 353.629 804.92 353.039C804.25 352.449 803.72 351.839 803.32 351.189C802.92 350.549 802.62 349.929 802.42 349.339C802.22 348.749 802.07 348.088 801.95 347.358H805.28C805.41 347.978 805.58 348.528 805.8 348.988C806.01 349.458 806.33 349.928 806.75 350.398C807.17 350.878 807.74 351.268 808.45 351.578C809.16 351.888 810.06 352.048 811.14 352.048C812.78 352.048 814.08 351.658 815.03 350.868C815.98 350.078 816.46 349.059 816.46 347.789C816.46 346.699 816.1 345.859 815.38 345.259C814.66 344.659 813.63 344.198 812.3 343.858L809.04 343.059C807.89 342.769 806.82 342.369 805.83 341.849C804.84 341.329 804.06 340.639 803.47 339.789C802.88 338.939 802.59 337.868 802.59 336.578C802.59 335.138 802.94 333.909 803.65 332.889C804.36 331.869 805.32 331.088 806.54 330.548C807.76 330.008 809.15 329.729 810.7 329.729C812.21 329.729 813.46 329.958 814.46 330.428C815.46 330.898 816.26 331.469 816.85 332.139C817.45 332.819 817.89 333.489 818.18 334.169C818.47 334.849 818.7 335.648 818.88 336.578H815.69C815.51 335.778 815.26 335.119 814.93 334.599C814.6 334.079 814.09 333.619 813.4 333.219C812.71 332.819 811.78 332.618 810.61 332.618C809.01 332.618 807.81 332.999 807 333.749C806.19 334.499 805.79 335.369 805.79 336.339C805.79 337.229 806.11 337.938 806.75 338.488C807.39 339.028 808.28 339.448 809.41 339.738L812.94 340.608C814.2 340.918 815.35 341.368 816.37 341.958C817.39 342.548 818.2 343.299 818.8 344.219C819.4 345.139 819.7 346.269 819.7 347.599C819.7 348.929 819.37 350.159 818.72 351.289C818.07 352.419 817.1 353.319 815.83 353.999C814.56 354.679 812.96 355.018 811.07 355.018Z" fill="white"/>
<path d="M824.11 361.179C823.6 361.179 822.99 361.139 822.28 361.049V358.359C823.01 358.429 823.59 358.459 824.01 358.459C825.32 358.459 826.39 358.189 827.22 357.639C828.05 357.099 828.76 356.199 829.33 354.959L822.51 337.059H825.8L830.89 350.829L836.01 337.059H839.34L832.52 354.719C831.66 356.939 830.54 358.569 829.18 359.609C827.82 360.649 826.13 361.179 824.11 361.179Z" fill="white"/>
<path d="M848.96 355.019C847.61 355.019 846.49 354.829 845.62 354.449C844.74 354.069 844.05 353.599 843.54 353.039C843.03 352.479 842.65 351.909 842.41 351.339C842.17 350.769 841.98 350.109 841.84 349.359H845.03C845.19 349.959 845.39 350.449 845.65 350.839C845.91 351.229 846.3 351.569 846.85 351.869C847.39 352.169 848.12 352.319 849.03 352.319C850.07 352.319 850.88 352.069 851.46 351.569C852.04 351.069 852.33 350.459 852.33 349.719C852.33 349.079 852.1 348.569 851.65 348.189C851.2 347.809 850.55 347.519 849.7 347.319L847.3 346.749C846.41 346.529 845.58 346.229 844.81 345.849C844.03 345.469 843.41 344.959 842.93 344.299C842.45 343.639 842.22 342.829 842.22 341.849C842.22 340.339 842.79 339.109 843.92 338.139C845.05 337.169 846.53 336.689 848.34 336.689C849.56 336.689 850.57 336.859 851.37 337.199C852.17 337.539 852.81 337.969 853.28 338.479C853.75 338.989 854.11 339.499 854.34 340.009C854.57 340.519 854.76 341.119 854.89 341.809H851.83C851.7 341.299 851.51 340.879 851.28 340.559C851.05 340.239 850.7 339.949 850.23 339.689C849.76 339.429 849.14 339.309 848.37 339.309C847.31 339.309 846.53 339.559 846.04 340.039C845.55 340.529 845.31 341.059 845.31 341.639C845.31 342.189 845.54 342.639 845.99 342.989C846.44 343.329 847.04 343.589 847.77 343.769L850.2 344.339C851.71 344.689 852.95 345.279 853.94 346.089C854.93 346.899 855.42 348.059 855.42 349.569C855.42 350.549 855.17 351.449 854.66 352.279C854.15 353.109 853.42 353.769 852.46 354.259C851.5 354.779 850.34 355.019 848.96 355.019Z" fill="white"/>
<path d="M866.56 355.019C864.74 355.019 863.37 354.549 862.45 353.619C861.53 352.689 861.07 351.379 861.07 349.699V339.649H857.91V337.059H861.07V332.639H864.23V337.059H868.52V339.649H864.23V349.699C864.23 350.589 864.47 351.239 864.96 351.649C865.45 352.059 866.16 352.269 867.09 352.269C867.58 352.269 868.27 352.199 869.15 352.069V354.759C868.13 354.939 867.27 355.019 866.56 355.019Z" fill="white"/>
<path d="M880.66 355.02C879.22 355.02 877.97 354.76 876.92 354.24C875.87 353.72 875 353.02 874.33 352.13C873.65 351.24 873.15 350.26 872.82 349.19C872.49 348.11 872.32 347.01 872.32 345.88C872.32 344.77 872.48 343.67 872.8 342.59C873.12 341.5 873.62 340.52 874.3 339.63C874.98 338.74 875.83 338.04 876.86 337.52C877.89 337 879.12 336.74 880.54 336.74C882.05 336.74 883.38 337.08 884.53 337.77C885.68 338.46 886.59 339.48 887.26 340.83C887.93 342.18 888.26 343.88 888.26 345.92V346.85H875.52C875.59 347.85 875.82 348.76 876.23 349.59C876.64 350.42 877.22 351.09 877.98 351.59C878.74 352.09 879.63 352.34 880.67 352.34C881.58 352.34 882.32 352.19 882.88 351.89C883.45 351.59 883.89 351.24 884.23 350.84C884.57 350.44 884.85 349.94 885.1 349.34H888.06C887.84 350.12 887.58 350.78 887.3 351.34C887.01 351.89 886.59 352.45 886.04 353.02C885.49 353.59 884.78 354.06 883.91 354.45C883.02 354.83 881.95 355.02 880.66 355.02ZM875.54 344.38H885.15C885.11 343.23 884.86 342.29 884.42 341.57C883.98 340.85 883.41 340.31 882.72 339.96C882.03 339.61 881.3 339.43 880.52 339.43C879.12 339.43 877.98 339.88 877.09 340.78C876.22 341.67 875.69 342.87 875.54 344.38Z" fill="white"/>
<path d="M892.57 354.689V337.059H895.73V339.618H895.86C896.04 339.288 896.32 338.889 896.69 338.439C897.06 337.989 897.58 337.588 898.24 337.238C898.89 336.898 899.72 336.729 900.72 336.729C902.03 336.729 903.13 337.048 904.03 337.678C904.93 338.308 905.6 339.159 906.04 340.219H906.07C906.56 339.239 907.25 338.418 908.15 337.738C909.05 337.058 910.22 336.729 911.66 336.729C913.57 336.729 915.04 337.378 916.07 338.678C917.1 339.978 917.62 341.649 917.62 343.689V354.699H914.46V343.858C914.46 342.548 914.15 341.488 913.53 340.678C912.91 339.868 912.01 339.469 910.84 339.469C909.82 339.469 909.01 339.748 908.4 340.298C907.79 340.848 907.35 341.538 907.09 342.358C906.82 343.178 906.69 343.999 906.69 344.819V354.699H903.53V343.858C903.53 342.548 903.22 341.488 902.61 340.678C902 339.868 901.1 339.469 899.9 339.469C898.88 339.469 898.07 339.748 897.45 340.298C896.84 340.848 896.4 341.549 896.14 342.379C895.87 343.209 895.74 344.028 895.74 344.828V354.708H892.57V354.689Z" fill="white"/>
</g>
<defs>
<clipPath id="clip0_1721_2642">
<rect width="927.78" height="432.06" fill="white"/>
</clipPath>
</defs>
</svg>
