<svg width="137" height="159" viewBox="0 0 137 159" fill="none" xmlns="http://www.w3.org/2000/svg">
<path d="M0 0H137V159L68.5 133.197L0 159V0Z" fill="#2691FF"/>
<path d="M40.488 47.8972C35.4381 52.0976 30.9836 55.8581 26.4409 59.5307C24.9855 60.7183 23.3095 63.0274 21.391 60.6523C19.4945 58.3212 21.9864 57.1117 23.4639 55.8801C36.8936 44.6645 50.3673 33.4488 63.797 22.2331C64.0175 22.0572 64.1939 21.8593 64.4145 21.6833C65.8699 20.5618 67.4356 18.9564 69.1336 20.9356C70.8977 23.0028 68.891 24.2344 67.5238 25.3779C62.3195 29.7322 57.1152 34.0866 51.8228 38.3309C50.5658 39.3425 50.3012 40.2882 50.5438 41.8496C52.6166 54.9565 55.6598 67.8655 58.2178 80.8845C58.9676 84.689 59.0117 84.667 55.2408 84.711C51.1171 84.755 46.9713 84.689 42.8476 84.865C40.885 84.9529 40.3778 84.2932 40.3998 82.4019C40.488 72.1539 40.466 61.8838 40.488 51.6358C40.488 50.6462 40.488 49.6565 40.488 47.8972Z" fill="white"/>
<path d="M93.7429 54.1875C93.7429 63.9517 93.6767 73.0782 93.787 82.2047C93.809 84.3599 93.2136 85.0196 91.0525 84.9316C86.9288 84.7557 82.8051 84.7997 78.6814 84.9097C76.7628 84.9536 76.3439 84.5138 76.8731 82.5786C79.8281 71.7367 82.6066 60.8509 85.5616 50.0091C86.0247 48.2938 85.6719 47.3482 84.3708 46.3146C80.0045 42.8179 75.7485 39.2113 71.4483 35.6487C71.0955 35.3628 70.7426 35.0549 70.4119 34.747C69.2872 33.7794 68.3831 32.6358 69.5959 31.2504C70.8529 29.7989 72.1981 30.4147 73.433 31.4483C78.2844 35.4947 83.1359 39.5412 87.9873 43.5876C95.8599 50.1631 103.754 56.7165 111.627 63.292C111.98 63.5779 112.311 63.8858 112.663 64.1937C113.81 65.2053 115.023 66.2828 113.7 67.8662C112.421 69.3617 111.12 68.592 109.885 67.5803C105.541 63.9298 101.152 60.3232 96.7861 56.6946C95.9481 55.9908 95.1101 55.3091 93.7429 54.1875Z" fill="white"/>
<path d="M46.1351 31.1183C46.1792 34.549 43.1801 37.6058 39.6739 37.6718C36.2338 37.7597 33.2567 34.9668 33.1685 31.5581C33.0583 27.9515 36.1235 24.8287 39.74 24.8507C43.2242 24.8727 46.091 27.6656 46.1351 31.1183Z" fill="white"/>
<path d="M95.1323 31.7129C98.6827 31.6469 101.505 34.3299 101.572 37.8265C101.66 41.5211 98.7048 44.5339 95.0221 44.5119C91.5379 44.4899 88.7152 41.697 88.7152 38.2223C88.6932 34.6817 91.5599 31.7788 95.1323 31.7129Z" fill="white"/>
<path d="M92.572 101.907H94.7772L93.6746 98.8062L92.572 101.907Z" fill="white"/>
<path d="M20 94.4741V107.471C20 108.857 21.1247 110 22.536 110H112.464C113.853 110 115 108.879 115 107.471V94.4741C115 93.0886 113.875 91.9451 112.464 91.9451H22.536C21.1247 91.9451 20 93.0666 20 94.4741ZM35.679 106.415H33.7825V102.105H30.0998V106.415H28.1813V96.1454H30.0998V100.258H33.7825V96.1454H35.679V106.415ZM50.4538 105.118C49.3953 106.152 48.1383 106.679 46.6609 106.679C45.1834 106.679 43.9264 106.152 42.8679 105.118C41.8094 104.084 41.2802 102.831 41.2802 101.335C41.2802 99.84 41.8094 98.5865 42.8459 97.5309C43.8823 96.4753 45.1613 95.9695 46.6388 95.9695C48.1163 95.9695 49.3733 96.4973 50.4318 97.5309C51.4902 98.5865 51.9974 99.84 51.9974 101.335C52.0415 102.809 51.5123 104.062 50.4538 105.118ZM60.1126 103.777C60.7962 104.48 61.5901 104.81 62.4942 104.81C62.9793 104.81 63.4424 104.7 63.8835 104.502C64.3245 104.304 64.7214 103.996 65.0963 103.623H67.3015C66.9266 104.546 66.2871 105.272 65.361 105.844C64.4789 106.393 63.5306 106.657 62.5162 106.657C61.0388 106.657 59.7818 106.13 58.7454 105.074C57.7089 104.018 57.1797 102.743 57.1797 101.269C57.1797 99.818 57.7089 98.5645 58.7454 97.5309C59.7818 96.4753 61.0388 95.9695 62.4721 95.9695C63.5306 95.9695 64.5009 96.2554 65.4051 96.8052C66.3092 97.377 66.9707 98.1247 67.3456 99.0923H65.1845C64.8758 98.6965 64.4789 98.3886 63.9937 98.1467C63.5086 97.9048 63.0014 97.7948 62.4942 97.7948C61.568 97.7948 60.7741 98.1467 60.1126 98.8284C59.451 99.5102 59.1202 100.368 59.1202 101.313C59.0982 102.281 59.429 103.095 60.1126 103.777ZM83.5097 106.415H81.6133V98.7185L78.945 106.415H77.3352L74.6669 98.7185V106.415H72.7484V96.1454H75.3505L78.107 103.996L80.9076 96.1454H83.5097V106.415ZM96.6307 106.415L95.506 103.755H91.8675L90.7207 106.415H88.6038L92.9039 96.1454H94.4034L98.7256 106.415H96.6307ZM105.87 106.415H103.952V96.1454H105.87V106.415Z" fill="white"/>
<path d="M46.6829 97.8174C45.7346 97.8174 44.9187 98.1473 44.2351 98.829C43.5515 99.5107 43.2207 100.324 43.2207 101.292C43.2207 102.238 43.5515 103.073 44.2351 103.777C44.9187 104.481 45.7346 104.833 46.6608 104.833C47.6091 104.833 48.4029 104.481 49.0865 103.777C49.7701 103.073 50.1009 102.26 50.1009 101.292C50.1009 100.324 49.7701 99.5107 49.0865 98.829C48.447 98.1473 47.6311 97.8174 46.6829 97.8174Z" fill="white"/>
</svg>
