<svg width="59" height="57" viewBox="0 0 59 57" fill="none" xmlns="http://www.w3.org/2000/svg">
<path d="M12.7238 17.3579C9.5875 19.9714 6.82102 22.3113 3.99975 24.5964C3.09585 25.3353 2.055 26.772 0.863495 25.2942C-0.314313 23.8438 1.23327 23.0912 2.15087 22.3249C10.4914 15.3465 18.8593 8.36796 27.1998 1.38947C27.3368 1.28001 27.4464 1.15686 27.5833 1.04739C28.4872 0.349541 29.4596 -0.649341 30.5141 0.582158C31.6098 1.86839 30.3635 2.63466 29.5144 3.34619C26.2822 6.05548 23.0501 8.76478 19.7632 11.4057C18.9826 12.0351 18.8182 12.6235 18.9689 13.595C20.2563 21.7502 22.1462 29.7824 23.7349 37.8829C24.2005 40.2501 24.2279 40.2364 21.886 40.2638C19.325 40.2911 16.7502 40.2501 14.1892 40.3596C12.9703 40.4143 12.6553 40.0038 12.669 38.827C12.7238 32.4506 12.7101 26.0605 12.7238 19.6841C12.7238 19.0683 12.7238 18.4526 12.7238 17.3579Z" fill="#0474BC"/>
<path d="M45.7985 21.2718C45.7985 27.3472 45.7575 33.0257 45.8259 38.7043C45.8396 40.0453 45.4699 40.4558 44.1277 40.401C41.5667 40.2916 39.0056 40.3189 36.4446 40.3874C35.253 40.4147 34.9928 40.1411 35.3215 38.9369C37.1567 32.1911 38.8823 25.4178 40.7175 18.6719C41.0051 17.6046 40.786 17.0163 39.978 16.3731C37.2663 14.1975 34.6231 11.9534 31.9524 9.73674C31.7333 9.55885 31.5142 9.36729 31.3088 9.17572C30.6103 8.57365 30.0488 7.86212 30.802 7.00007C31.5827 6.09697 32.4181 6.48011 33.185 7.12322C36.198 9.64095 39.211 12.1587 42.224 14.6764C47.1133 18.7677 52.0163 22.8454 56.9056 26.9367C57.1247 27.1145 57.3301 27.3061 57.5492 27.4977C58.2614 28.1271 59.0147 28.7976 58.1929 29.7828C57.3986 30.7133 56.5906 30.2343 55.8236 29.6049C53.1256 27.3335 50.4002 25.0894 47.6885 22.8317C47.1681 22.3938 46.6477 21.9696 45.7985 21.2718Z" fill="#0474BC"/>
<path d="M16.2305 6.9174C16.2579 9.05199 14.3953 10.954 12.2177 10.995C10.0812 11.0498 8.23235 9.31198 8.17757 7.19106C8.1091 4.947 10.0128 3.00397 12.2588 3.01765C14.4227 3.03133 16.2031 4.76911 16.2305 6.9174Z" fill="#0474BC"/>
<path d="M46.6612 7.2859C48.8662 7.24485 50.6192 8.91421 50.6603 11.0899C50.7151 13.3887 48.8799 15.2633 46.5928 15.2496C44.4289 15.2359 42.6759 13.4981 42.6759 11.3362C42.6622 9.13314 44.4426 7.32695 46.6612 7.2859Z" fill="#0474BC"/>
<path d="M45.0713 51.9626H46.4408L45.7561 50.0332L45.0713 51.9626Z" fill="#0474BC"/>
<path d="M0 47.3392V55.426C0 56.2881 0.698468 56.9996 1.57498 56.9996H57.425C58.2878 56.9996 59 56.3018 59 55.426V47.3392C59 46.4772 58.3015 45.7656 57.425 45.7656H1.57498C0.698468 45.7656 0 46.4635 0 47.3392ZM9.73746 54.7693H8.55966V52.0873H6.27252V54.7693H5.08101V48.3791H6.27252V50.9379H8.55966V48.3791H9.73746V54.7693ZM18.9134 53.9619C18.256 54.6051 17.4754 54.9334 16.5578 54.9334C15.6402 54.9334 14.8596 54.6051 14.2022 53.9619C13.5448 53.3188 13.2161 52.5389 13.2161 51.6084C13.2161 50.6779 13.5448 49.898 14.1885 49.2412C14.8322 48.5844 15.6265 48.2697 16.5441 48.2697C17.4617 48.2697 18.2423 48.5981 18.8997 49.2412C19.5571 49.898 19.8721 50.6779 19.8721 51.6084C19.8995 52.5252 19.5708 53.3051 18.9134 53.9619ZM24.912 53.1273C25.3366 53.5651 25.8296 53.7704 26.3911 53.7704C26.6924 53.7704 26.98 53.7019 27.2539 53.5788C27.5279 53.4556 27.7744 53.2641 28.0072 53.0315H29.3767C29.1439 53.6062 28.7467 54.0577 28.1715 54.4135C27.6237 54.7556 27.0348 54.9198 26.4048 54.9198C25.4872 54.9198 24.7066 54.5914 24.0629 53.9346C23.4192 53.2778 23.0905 52.4841 23.0905 51.5674C23.0905 50.6643 23.4192 49.8843 24.0629 49.2412C24.7066 48.5844 25.4872 48.2697 26.3774 48.2697C27.0348 48.2697 27.6374 48.4476 28.1989 48.7896C28.7604 49.1454 29.1713 49.6106 29.4041 50.2127H28.062C27.8702 49.9664 27.6237 49.7748 27.3224 49.6243C27.0211 49.4738 26.7061 49.4054 26.3911 49.4054C25.8159 49.4054 25.3229 49.6243 24.912 50.0485C24.5012 50.4727 24.2957 51.0063 24.2957 51.5947C24.282 52.1968 24.4875 52.7031 24.912 53.1273ZM39.4429 54.7693H38.2651V49.9801L36.6079 54.7693H35.6082L33.951 49.9801V54.7693H32.7595V48.3791H34.3756L36.0875 53.2641L37.8268 48.3791H39.4429V54.7693ZM47.5917 54.7693L46.8932 53.1136H44.6335L43.9213 54.7693H42.6065L45.2772 48.3791H46.2085L48.8928 54.7693H47.5917ZM53.3301 54.7693H52.1386V48.3791H53.3301V54.7693Z" fill="#0474BC"/>
<path d="M16.5711 49.4199C15.9822 49.4199 15.4754 49.6252 15.0509 50.0494C14.6263 50.4735 14.4209 50.9798 14.4209 51.5819C14.4209 52.1703 14.6263 52.6902 15.0509 53.1281C15.4754 53.566 15.9822 53.7849 16.5574 53.7849C17.1463 53.7849 17.6393 53.566 18.0639 53.1281C18.4884 52.6902 18.6939 52.1839 18.6939 51.5819C18.6939 50.9798 18.4884 50.4735 18.0639 50.0494C17.6667 49.6252 17.16 49.4199 16.5711 49.4199Z" fill="#0474BC"/>
</svg>
