<svg width="68" height="64" viewBox="0 0 68 64" fill="none" xmlns="http://www.w3.org/2000/svg">
<path d="M14.6652 19.8377C11.0505 22.8246 7.86201 25.4988 4.61038 28.1103C3.5686 28.9548 2.36897 30.5968 0.995712 28.9079C-0.361763 27.2502 1.4219 26.3902 2.47946 25.5144C12.0923 17.5389 21.7367 9.56346 31.3495 1.58798C31.5073 1.46288 31.6336 1.32213 31.7914 1.19703C32.8332 0.399479 33.9539 -0.742109 35.1693 0.665328C36.4321 2.13532 34.9957 3.01106 34.0171 3.82424C30.2919 6.9206 26.5667 10.017 22.7784 13.0351C21.8787 13.7545 21.6893 14.4269 21.8629 15.5372C23.3467 24.8576 25.525 34.0372 27.356 43.295C27.8926 46.0004 27.9242 45.9848 25.225 46.0161C22.2733 46.0474 19.3058 46.0004 16.3541 46.1255C14.9493 46.1881 14.5862 45.719 14.602 44.3741C14.6652 37.0867 14.6494 29.7836 14.6652 22.4962C14.6652 21.7925 14.6652 21.0888 14.6652 19.8377Z" fill="#2691FF"/>
<path d="M52.7844 24.3107C52.7844 31.2541 52.7371 37.7439 52.816 44.2338C52.8318 45.7663 52.4056 46.2355 50.8587 46.1729C47.907 46.0478 44.9553 46.0791 42.0035 46.1573C40.6303 46.1885 40.3304 45.8758 40.7092 44.4996C42.8243 36.79 44.8132 29.0491 46.9283 21.3395C47.2598 20.1197 47.0073 19.4472 46.076 18.7122C42.9506 16.2258 39.9042 13.6611 36.8262 11.1277C36.5736 10.9244 36.3211 10.7055 36.0843 10.4866C35.2793 9.79848 34.6321 8.98529 35.5003 8.00009C36.4 6.96797 37.3629 7.40584 38.2468 8.14083C41.7194 11.0183 45.192 13.8957 48.6646 16.7731C54.2997 21.4489 59.9506 26.1091 65.5857 30.7849C65.8383 30.9882 66.075 31.2072 66.3276 31.4261C67.1484 32.1455 68.0165 32.9117 67.0695 34.0377C66.154 35.1011 65.2227 34.5537 64.3387 33.8344C61.2292 31.2384 58.088 28.6738 54.9627 26.0935C54.3629 25.5931 53.7631 25.1083 52.7844 24.3107Z" fill="#2691FF"/>
<path d="M18.7072 7.90619C18.7388 10.3457 16.5921 12.5195 14.0823 12.5664C11.62 12.6289 9.48903 10.6429 9.42589 8.21895C9.34697 5.65429 11.541 3.43366 14.1297 3.4493C16.6237 3.46494 18.6757 5.45099 18.7072 7.90619Z" fill="#2691FF"/>
<path d="M53.779 8.32897C56.3203 8.28206 58.3407 10.1899 58.3881 12.6764C58.4512 15.3036 56.3361 17.446 53.7 17.4304C51.2061 17.4148 49.1856 15.4287 49.1856 12.9579C49.1699 10.4401 51.2218 8.37589 53.779 8.32897Z" fill="#2691FF"/>
<path d="M51.9463 58.244H53.5247L52.7355 56.0391L51.9463 58.244Z" fill="#2691FF"/>
<path d="M0 52.9586V62.2007C0 63.1859 0.805014 63.9991 1.81523 63.9991H66.1848C67.1792 63.9991 68 63.2016 68 62.2007V52.9586C68 51.9733 67.195 51.1602 66.1848 51.1602H1.81523C0.805014 51.1602 0 51.9577 0 52.9586ZM11.2228 61.4501H9.86537V58.385H7.22934V61.4501H5.85608V54.1471H7.22934V57.0714H9.86537V54.1471H11.2228V61.4501ZM21.7985 60.5274C21.0409 61.2624 20.1411 61.6377 19.0836 61.6377C18.026 61.6377 17.1263 61.2624 16.3686 60.5274C15.611 59.7924 15.2321 58.9011 15.2321 57.8377C15.2321 56.7743 15.611 55.8829 16.3528 55.1323C17.0947 54.3816 18.0102 54.0219 19.0678 54.0219C20.1253 54.0219 21.0251 54.3973 21.7827 55.1323C22.5404 55.8829 22.9034 56.7743 22.9034 57.8377C22.935 58.8854 22.5562 59.7768 21.7985 60.5274ZM28.7122 59.5735C29.2015 60.0739 29.7697 60.3085 30.4169 60.3085C30.7642 60.3085 31.0956 60.2303 31.4113 60.0896C31.727 59.9488 32.0111 59.7299 32.2795 59.464H33.8579C33.5896 60.1208 33.1318 60.6369 32.4689 61.0435C31.8375 61.4344 31.1588 61.6221 30.4327 61.6221C29.3751 61.6221 28.4754 61.2468 27.7335 60.4962C26.9916 59.7455 26.6128 58.8385 26.6128 57.7908C26.6128 56.7586 26.9916 55.8673 27.7335 55.1323C28.4754 54.3816 29.3751 54.0219 30.4011 54.0219C31.1588 54.0219 31.8533 54.2252 32.5005 54.6162C33.1476 55.0228 33.6212 55.5545 33.8895 56.2426H32.3426C32.1216 55.9611 31.8375 55.7421 31.4903 55.5701C31.143 55.3981 30.7799 55.3199 30.4169 55.3199C29.7539 55.3199 29.1857 55.5701 28.7122 56.0549C28.2386 56.5397 28.0019 57.1496 28.0019 57.822C27.9861 58.5101 28.2228 59.0887 28.7122 59.5735ZM45.4596 61.4501H44.1021V55.9767L42.1922 61.4501H41.0399L39.13 55.9767V61.4501H37.7567V54.1471H39.6193L41.5924 59.7299L43.597 54.1471H45.4596V61.4501ZM54.8514 61.4501L54.0464 59.5579H51.442L50.6212 61.4501H49.1059L52.1838 54.1471H53.2572L56.351 61.4501H54.8514ZM61.4652 61.4501H60.0919V54.1471H61.4652V61.4501Z" fill="#2691FF"/>
<path d="M19.0993 55.3359C18.4205 55.3359 17.8365 55.5705 17.3472 56.0553C16.8579 56.5401 16.6211 57.1187 16.6211 57.8068C16.6211 58.4792 16.8579 59.0735 17.3472 59.5739C17.8365 60.0743 18.4205 60.3245 19.0835 60.3245C19.7622 60.3245 20.3305 60.0743 20.8198 59.5739C21.3091 59.0735 21.5459 58.4948 21.5459 57.8068C21.5459 57.1187 21.3091 56.5401 20.8198 56.0553C20.362 55.5705 19.778 55.3359 19.0993 55.3359Z" fill="#2691FF"/>
</svg>
