<svg width="102" height="103" viewBox="0 0 102 103" fill="none" xmlns="http://www.w3.org/2000/svg">
<path d="M78.1773 73.7382L76.1493 76.9268C75.411 78.0887 75.7545 79.5738 76.8854 80.1047L90.3387 86.4198C91.293 86.8707 92.4966 86.4663 93.1229 85.4798C93.7492 84.4933 93.6084 83.2372 92.7937 82.5596L81.3623 73.0595C80.4079 72.2579 78.9156 72.5823 78.1773 73.7382Z" fill="#2D3135"/>
<g style="mix-blend-mode:multiply" opacity="0.5">
<path d="M85.8663 76.7977L81.3631 73.0592C80.4088 72.2611 78.9117 72.582 78.1733 73.7415L76.1454 76.9301C75.407 78.092 75.7506 79.5771 76.8814 80.1079L84.5433 83.7045C85.2051 81.45 85.6481 79.1371 85.8663 76.7977Z" fill="#2D3135"/>
</g>
<g style="mix-blend-mode:screen">
<g style="mix-blend-mode:screen">
<path d="M91.5098 82.8086C91.4725 82.8218 91.4325 82.826 91.3933 82.8206C91.3541 82.8152 91.3167 82.8004 91.2843 82.7775L86.0631 79.0629C86.0099 79.0249 85.9741 78.9674 85.9633 78.903C85.9526 78.8386 85.9679 78.7725 86.0058 78.7193C86.0438 78.6662 86.1013 78.6303 86.1657 78.6196C86.2302 78.6088 86.2962 78.6241 86.3494 78.6621L91.5694 82.3767C91.6226 82.4146 91.6587 82.472 91.6696 82.5364C91.6806 82.6008 91.6656 82.6669 91.6279 82.7203C91.5983 82.7609 91.5571 82.7916 91.5098 82.8086Z" fill="#2D3135"/>
</g>
</g>
<path d="M44.2324 84.2887L47.7096 85.7667C48.9765 86.3047 49.5359 87.7231 48.9025 88.8014L41.4017 101.631C40.8661 102.546 39.6505 102.892 38.5745 102.434C37.4985 101.976 36.9045 100.863 37.1908 99.8416L41.2168 85.5353C41.5555 84.3329 42.9655 83.7508 44.2324 84.2887Z" fill="#2D3135"/>
<g style="mix-blend-mode:multiply" opacity="0.5">
<path d="M39.6328 91.1682L41.2182 85.5354C41.5557 84.333 42.9657 83.7461 44.2326 84.2888L47.7098 85.7668C48.9767 86.3048 49.5361 87.7231 48.9027 88.8015L44.631 96.1067C42.8102 94.6249 41.1364 92.971 39.6328 91.1682Z" fill="#2D3135"/>
</g>
<g style="mix-blend-mode:screen">
<g style="mix-blend-mode:screen">
<path d="M38.3915 99.3194C38.4298 99.3093 38.465 99.2901 38.4942 99.2636C38.5235 99.237 38.546 99.2038 38.5597 99.1667L40.7546 93.1462C40.7698 93.0867 40.7622 93.0236 40.7334 92.9694C40.7045 92.9151 40.6565 92.8736 40.5986 92.8528C40.5408 92.8321 40.4773 92.8337 40.4206 92.8573C40.3638 92.8809 40.3179 92.9248 40.2918 92.9804L38.0969 99.0009C38.0746 99.0623 38.0775 99.13 38.105 99.1893C38.1325 99.2485 38.1823 99.2945 38.2436 99.317C38.2914 99.3335 38.3432 99.3343 38.3915 99.3194Z" fill="#2D3135"/>
</g>
</g>
<path d="M74.9335 9.35904L76.5463 4.94537C76.6492 4.69966 76.7027 4.4361 76.7037 4.16972C76.7047 3.90335 76.6532 3.63938 76.5522 3.3929C76.4511 3.14643 76.3025 2.92227 76.1149 2.73323C75.9272 2.5442 75.7041 2.394 75.4584 2.2912C75.2127 2.1883 74.9491 2.13482 74.6827 2.1338C74.4163 2.13279 74.1524 2.18427 73.9059 2.2853C73.6594 2.38632 73.4353 2.53492 73.2462 2.7226C73.0572 2.91028 72.907 3.13336 72.8042 3.37911L71.1914 7.79278L74.9335 9.35904Z" fill="#2D3135"/>
<g style="mix-blend-mode:multiply" opacity="0.3">
<path d="M75.4583 2.28535C75.3157 2.22594 75.1668 2.18311 75.0145 2.15771C75.6897 2.66588 75.9438 3.64405 75.5716 4.53155L74.5791 6.90301L75.5537 7.31098L76.5462 4.94549C76.65 4.69946 76.7042 4.43535 76.7057 4.16832C76.7072 3.90129 76.6559 3.63659 76.5548 3.38943C76.4537 3.14226 76.3048 2.91749 76.1166 2.72803C75.9285 2.53856 75.7047 2.38812 75.4583 2.28535Z" fill="#2D3135"/>
</g>
<path d="M73.786 2.99414C73.8253 3.18739 74.1033 3.29355 74.4075 3.23272C74.7116 3.17188 74.9264 2.96312 74.8846 2.76988C74.8429 2.57663 74.5661 2.47046 74.2619 2.5313C73.9577 2.59214 73.7466 2.79851 73.786 2.99414Z" fill="white"/>
<path d="M50.3672 14.0425L77.3538 25.1459L84.5386 28.1007C85.9778 23.9995 85.9275 19.5227 84.3966 15.4549C82.8656 11.3871 79.9518 7.98796 76.1657 5.85336C75.8591 5.6792 75.5466 5.51577 75.2269 5.35951C74.9072 5.20324 74.5661 5.04697 74.2261 4.90502C74.1414 4.86923 74.0555 4.83464 73.9708 4.80124L73.7573 4.71773C73.6881 4.6891 73.6177 4.66405 73.5485 4.63781C73.4793 4.61157 73.3946 4.58055 73.3171 4.55431C73.1978 4.50898 73.0702 4.46484 72.9449 4.42428L72.6885 4.34078C72.6026 4.31335 72.5179 4.28472 72.4332 4.25967C68.1931 2.97983 63.6346 3.26318 59.5856 5.05827C55.5367 6.85335 52.2659 10.0411 50.3672 14.0425Z" fill="#F7B90D"/>
<g style="mix-blend-mode:multiply" opacity="0.3">
<g style="mix-blend-mode:multiply">
<path d="M50.0142 14.8384C49.998 14.8772 49.9845 14.917 49.9736 14.9577C49.9845 14.917 49.998 14.8772 50.0142 14.8384Z" fill="#F7B90D"/>
</g>
<g style="mix-blend-mode:multiply">
<path d="M72.1777 4.18457C72.2553 4.23229 72.334 4.28 72.4163 4.3301C73.3036 4.89743 74.1122 5.57927 74.8212 6.35801C75.09 6.64748 75.3448 6.95087 75.5858 7.26818C78.9605 11.6878 79.8003 18.535 77.3644 25.1507L84.5491 28.1055C85.9883 24.0043 85.9381 19.5275 84.4071 15.4597C82.8762 11.3919 79.9623 7.99279 76.1763 5.85819C75.8697 5.68403 75.5572 5.5206 75.2375 5.36433C74.9178 5.20807 74.5766 5.0518 74.2367 4.90984C74.152 4.87406 74.0661 4.83946 73.9814 4.80606L73.7679 4.72256C73.6987 4.69393 73.6283 4.66888 73.5591 4.64264C73.4899 4.6164 73.4052 4.58538 73.3277 4.55914C73.2084 4.51381 73.0808 4.46967 72.9555 4.42911L72.699 4.34561L72.4437 4.26688L72.1777 4.18457Z" fill="#F7B90D"/>
</g>
</g>
<g style="mix-blend-mode:screen" opacity="0.5">
<g style="mix-blend-mode:screen">
<path d="M71.1902 6.42204C71.2832 6.87534 71.8069 7.15209 72.3628 7.03996C72.9187 6.92783 73.292 6.46737 73.1978 6.01408C73.1036 5.56078 72.5811 5.28284 72.0264 5.39497C71.4717 5.5071 71.1043 5.96756 71.1902 6.42204Z" fill="#F7B90D"/>
</g>
</g>
<g style="mix-blend-mode:screen" opacity="0.5">
<g style="mix-blend-mode:screen">
<path d="M53.8399 12.475C54.0151 12.4395 54.1715 12.3416 54.2801 12.1994C59.4989 5.35466 69.0313 6.18014 69.1267 6.18968C69.3193 6.20426 69.51 6.14277 69.6578 6.0184C69.8056 5.89402 69.8988 5.71667 69.9174 5.52438C69.936 5.3321 69.8785 5.14019 69.7572 4.98982C69.6359 4.83945 69.4605 4.74261 69.2687 4.72005C68.8452 4.67949 58.8309 3.79675 53.1063 11.3036C53.0152 11.423 52.9628 11.5673 52.9559 11.7174C52.949 11.8674 52.988 12.0159 53.0677 12.1432C53.1474 12.2705 53.264 12.3704 53.402 12.4297C53.5399 12.489 53.6927 12.5048 53.8399 12.475Z" fill="#F7B90D"/>
</g>
</g>
<path d="M84.4888 28.0497C84.7596 27.3889 77.3462 23.7258 67.9305 19.868C58.5148 16.0102 50.6624 13.4185 50.3916 14.0793C50.1209 14.7402 57.5343 18.4033 66.95 22.2611C76.3657 26.1189 84.2181 28.7105 84.4888 28.0497Z" fill="#DD8C0B"/>
<path d="M67.9321 19.8696L66.3324 19.2183L65.6167 20.7571L65.2433 21.5551L58.4141 36.1572L61.9068 37.7903L68.8101 23.0164L69.1083 22.3794L69.9015 20.6855C69.2566 20.4159 68.6001 20.1439 67.9321 19.8696Z" fill="#2D3135"/>
<g style="mix-blend-mode:multiply" opacity="0.5">
<path d="M66.3324 19.2183L65.959 20.0175C67.0427 20.7647 68.087 21.5674 69.0879 22.4224L69.107 22.3794L69.9003 20.6855C69.2553 20.4159 68.5988 20.1439 67.9308 19.8696L66.3324 19.2183Z" fill="#2D3135"/>
</g>
<path d="M10.5925 29.0952L6.76213 26.373C6.53808 26.2289 6.3446 26.0421 6.19276 25.8233C6.04091 25.6044 5.93368 25.3577 5.87719 25.0974C5.82069 24.8371 5.81604 24.5682 5.86349 24.3061C5.91095 24.0439 6.00958 23.7937 6.15376 23.5697C6.44415 23.1173 6.90231 22.7987 7.42753 22.6839C7.95275 22.5692 8.50204 22.6677 8.95466 22.9578L12.785 25.68L10.5925 29.0952Z" fill="#2D3135"/>
<g style="mix-blend-mode:multiply" opacity="0.3">
<path d="M6.15421 23.5698C6.23845 23.44 6.33687 23.32 6.44765 23.2119C6.17925 24.0135 6.52519 24.9631 7.33397 25.4844L9.49548 26.8741L8.92408 27.7628L6.76258 26.3719C6.3104 26.0809 5.99229 25.6223 5.87821 25.0968C5.76412 24.5713 5.8634 24.0221 6.15421 23.5698Z" fill="#2D3135"/>
</g>
<path d="M7.93356 23.206C8.0111 23.3874 7.84171 23.6331 7.55661 23.7548C7.27151 23.8764 6.97568 23.8275 6.89933 23.6462C6.82299 23.4649 6.98999 23.218 7.27628 23.0975C7.56258 22.977 7.85603 23.0235 7.93356 23.206Z" fill="white"/>
<path d="M33.4888 19.0323L17.5518 43.4757L13.3087 49.9841C9.79821 47.4214 7.30167 43.7049 6.25671 39.486C5.21174 35.2671 5.68503 30.8151 7.59362 26.9101C7.74751 26.594 7.91332 26.2815 8.08748 25.9713C8.26164 25.6612 8.45489 25.3391 8.6541 25.0302C8.70301 24.9514 8.7543 24.8751 8.80559 24.7999C8.85689 24.7248 8.89148 24.6723 8.93443 24.6103C8.97737 24.5482 9.01912 24.491 9.06087 24.4254C9.10262 24.3598 9.15511 24.2906 9.20402 24.2261C9.28036 24.1176 9.35671 24.0126 9.43663 23.9076C9.49071 23.8361 9.54558 23.7645 9.60125 23.6929C9.65612 23.6214 9.7098 23.551 9.76587 23.4818C12.5332 20.0239 16.449 17.6732 20.802 16.8567C25.155 16.0403 29.6565 16.8122 33.4888 19.0323Z" fill="#F7B90D"/>
<g style="mix-blend-mode:multiply" opacity="0.3">
<g style="mix-blend-mode:multiply">
<path d="M34.2314 19.4868C34.2675 19.5114 34.3022 19.5381 34.3352 19.5667C34.3027 19.5375 34.268 19.5108 34.2314 19.4868Z" fill="#F7B90D"/>
</g>
<g style="mix-blend-mode:multiply">
<path d="M9.93764 23.272C9.90066 23.3555 9.86368 23.439 9.8279 23.5237C9.41783 24.4926 9.13708 25.5114 8.99288 26.5536C8.93681 26.9449 8.89983 27.3385 8.87955 27.7369C8.60519 33.2922 11.795 39.4081 17.5518 43.483L13.3087 49.9842C9.79821 47.4216 7.30167 43.7051 6.25671 39.4862C5.21174 35.2673 5.68503 30.8152 7.59362 26.9103C7.74751 26.5942 7.91332 26.2816 8.08748 25.9715C8.26164 25.6613 8.45489 25.3392 8.6541 25.0303C8.70301 24.9516 8.7543 24.8752 8.8056 24.8001C8.85689 24.7249 8.89148 24.6724 8.93443 24.6104C8.97737 24.5484 9.01912 24.4911 9.06087 24.4255C9.10262 24.3599 9.15511 24.2907 9.20402 24.2263C9.28036 24.1177 9.35671 24.0128 9.43663 23.9078C9.49071 23.8362 9.54558 23.7646 9.60125 23.6931L9.76587 23.4843L9.93764 23.272Z" fill="#F7B90D"/>
</g>
</g>
<g style="mix-blend-mode:screen" opacity="0.5">
<g style="mix-blend-mode:screen">
<path d="M12.0146 24.5587C12.196 24.9846 11.9216 25.513 11.4003 25.7325C10.879 25.952 10.31 25.7874 10.1275 25.3615C9.94499 24.9356 10.2217 24.4072 10.743 24.1877C11.2643 23.9682 11.8333 24.1316 12.0146 24.5587Z" fill="#F7B90D"/>
</g>
</g>
<g style="mix-blend-mode:screen" opacity="0.5">
<g style="mix-blend-mode:screen">
<path d="M29.7392 19.7086C29.5747 19.7788 29.3903 19.7869 29.2203 19.7312C21.0419 17.052 13.6567 23.1345 13.5828 23.1966C13.5086 23.2592 13.4228 23.3067 13.3303 23.3362C13.2378 23.3657 13.1404 23.3767 13.0436 23.3685C12.9469 23.3604 12.8526 23.3333 12.7664 23.2887C12.6801 23.2442 12.6034 23.1831 12.5408 23.1089C12.4781 23.0347 12.4307 22.9489 12.4012 22.8564C12.3717 22.7639 12.3607 22.6665 12.3688 22.5697C12.377 22.473 12.4041 22.3788 12.4486 22.2925C12.4932 22.2062 12.5543 22.1296 12.6285 22.0669C12.9541 21.7937 20.7031 15.3868 29.6748 18.3284C29.8177 18.3748 29.9431 18.4638 30.0341 18.5834C30.125 18.7031 30.1773 18.8476 30.1837 18.9978C30.1902 19.1479 30.1507 19.2965 30.0704 19.4235C29.9901 19.5506 29.8728 19.65 29.7344 19.7086H29.7392Z" fill="#F7B90D"/>
</g>
</g>
<path d="M24.7656 35.2269C30.3621 26.6796 34.4126 19.4322 33.8127 19.0395C33.2128 18.6467 28.1897 25.2572 22.5932 33.8045C16.9968 42.3518 12.9463 49.5992 13.5462 49.992C14.146 50.3847 19.1692 43.7742 24.7656 35.2269Z" fill="#DD8C0B"/>
<path d="M22.3225 33.7894C22.6406 33.3011 22.9567 32.8203 23.2708 32.3472L24.7345 33.2072L25.4955 33.6534L39.3962 41.8115L37.4447 45.1373L23.3889 36.8801L22.7817 36.5223L21.1689 35.5763C21.5435 34.9902 21.928 34.3946 22.3225 33.7894Z" fill="#2D3135"/>
<g style="mix-blend-mode:multiply" opacity="0.5">
<path d="M23.269 32.3472L24.0288 32.7933C23.5593 34.023 23.1543 35.2765 22.8157 36.5485L22.7739 36.5247L21.1611 35.5787C21.5397 34.9902 21.9262 34.3938 22.3206 33.7894C22.6403 33.3019 22.9564 32.8211 23.269 32.3472Z" fill="#2D3135"/>
</g>
<path d="M42.0359 15.0214L41.4082 15.2165C40.9471 15.3599 40.6895 15.8499 40.8328 16.311L43.8858 26.1313C44.0292 26.5924 44.5193 26.85 44.9804 26.7066L45.608 26.5115C46.0692 26.3682 46.3268 25.8781 46.1834 25.417L43.1304 15.5967C42.987 15.1356 42.497 14.878 42.0359 15.0214Z" fill="#2D3135"/>
<g style="mix-blend-mode:multiply" opacity="0.5">
<path d="M41.3229 17.8981L44.0546 18.5816L43.2256 15.9203C43.1786 15.7692 43.1023 15.6288 43.001 15.5072C42.8998 15.3856 42.7756 15.2852 42.6355 15.2115C42.4955 15.1379 42.3423 15.0926 42.1847 15.0782C42.0271 15.0638 41.8683 15.0806 41.7172 15.1276C41.5661 15.1746 41.4257 15.2509 41.3041 15.3521C41.1825 15.4534 41.082 15.5776 41.0084 15.7176C40.9348 15.8577 40.8895 16.0109 40.8751 16.1685C40.8607 16.3261 40.8775 16.4849 40.9245 16.636L41.3229 17.8981Z" fill="#2D3135"/>
</g>
<path d="M46.3522 12.9033C46.2771 12.6617 46.1551 12.4372 45.9933 12.2426C45.8314 12.0481 45.6328 11.8874 45.4089 11.7696C45.1849 11.6519 44.9399 11.5794 44.6879 11.5563C44.4359 11.5333 44.1818 11.5601 43.9402 11.6353L37.9125 13.5081C37.4245 13.6598 37.0168 13.9992 36.7789 14.4515C36.5411 14.9038 36.4928 15.4321 36.6445 15.9201C36.7962 16.4081 37.1355 16.8159 37.5879 17.0537C38.0402 17.2915 38.5685 17.3399 39.0565 17.1882L45.0841 15.3141C45.3258 15.2392 45.5502 15.1174 45.7447 14.9556C45.9393 14.7939 46.1 14.5954 46.2177 14.3715C46.3355 14.1476 46.408 13.9027 46.4311 13.6508C46.4541 13.3989 46.4273 13.1449 46.3522 12.9033Z" fill="#2D3135"/>
<path d="M43.9341 12.4463L38.0615 14.2726C38.041 14.2789 38.0194 14.2812 37.998 14.2792C37.9766 14.2772 37.9558 14.271 37.9368 14.261C37.9178 14.251 37.901 14.2373 37.8873 14.2208C37.8736 14.2042 37.8633 14.1852 37.8569 14.1646C37.8506 14.1441 37.8483 14.1226 37.8503 14.1012C37.8523 14.0798 37.8585 14.059 37.8685 14.04C37.8785 14.021 37.8922 14.0042 37.9087 13.9905C37.9253 13.9767 37.9443 13.9664 37.9649 13.9601L43.8398 12.1338C43.8813 12.121 43.9261 12.1251 43.9645 12.1454C44.0028 12.1656 44.0316 12.2003 44.0444 12.2417C44.0572 12.2832 44.053 12.328 44.0328 12.3664C44.0125 12.4047 43.9779 12.4335 43.9364 12.4463H43.9341Z" fill="white"/>
<path d="M89.6342 46.5678C95.6404 65.8925 84.8448 86.4292 65.5189 92.4354C46.193 98.4416 25.6551 87.646 19.6513 68.3201C13.6475 48.9941 24.4407 28.4586 43.7654 22.4524C63.0902 16.4463 83.6293 27.2419 89.6342 46.5678Z" fill="#EF1B2B"/>
<path d="M89.6342 46.5678C95.6404 65.8925 84.8448 86.4292 65.5189 92.4354C46.193 98.4416 25.6551 87.646 19.6513 68.3201C13.6475 48.9941 24.4407 28.4586 43.7654 22.4524C63.0902 16.4463 83.6293 27.2419 89.6342 46.5678Z" fill="#EF1B2B"/>
<g style="mix-blend-mode:multiply" opacity="0.8">
<path d="M19.6611 68.3509C25.684 87.6756 46.2291 98.4486 65.5502 92.4257C84.8714 86.4028 95.6491 65.8566 89.625 46.5366L19.6611 68.3509Z" fill="#EF1B2B"/>
</g>
<path d="M54.6434 88.7517C71.9346 88.7517 85.9519 74.7344 85.9519 57.4432C85.9519 40.152 71.9346 26.1348 54.6434 26.1348C37.3522 26.1348 23.335 40.152 23.335 57.4432C23.335 74.7344 37.3522 88.7517 54.6434 88.7517Z" fill="white"/>
<path d="M57.1912 58.9793C58.0431 57.5705 57.5916 55.7378 56.1827 54.8859C54.7739 54.034 52.9412 54.4855 52.0893 55.8944C51.2375 57.3032 51.689 59.1359 53.0978 59.9878C54.5067 60.8397 56.3393 60.3882 57.1912 58.9793Z" fill="#2D3135"/>
<path d="M55.0747 58.8375C54.706 58.9526 54.3066 58.9168 53.9643 58.7379C53.6219 58.559 53.3645 58.2516 53.2484 57.8832L47.6526 39.8754C47.5492 39.509 47.5929 39.1168 47.7745 38.7822C47.956 38.4477 48.2611 38.1972 48.6246 38.0843C48.9881 37.9714 49.3814 38.0049 49.7205 38.1777C50.0597 38.3505 50.318 38.6489 50.4404 39.0093L56.035 57.01C56.1499 57.3797 56.1133 57.7798 55.9332 58.1225C55.7532 58.4652 55.4444 58.7224 55.0747 58.8375Z" fill="#2D3135"/>
<path d="M47.3727 67.046C47.065 67.1416 46.7344 67.1327 46.4323 67.0207C46.1302 66.9088 45.8736 66.7001 45.7025 66.4272C45.5314 66.1542 45.4553 65.8323 45.4862 65.5117C45.5171 65.191 45.6531 64.8895 45.8732 64.6543L53.578 56.4448C53.8458 56.1747 54.2085 56.0197 54.5888 56.0129C54.9691 56.0061 55.3371 56.148 55.6144 56.4083C55.8917 56.6687 56.0564 57.027 56.0736 57.407C56.0907 57.787 55.9589 58.1586 55.7062 58.4429L48.0025 66.6512C47.8302 66.835 47.6132 66.9711 47.3727 67.046Z" fill="#2D3135"/>
<path d="M55.8146 58.5163C56.4061 57.869 56.3609 56.8647 55.7135 56.2732C55.0662 55.6817 54.0619 55.727 53.4704 56.3743C52.8789 57.0216 52.9242 58.0259 53.5715 58.6174C54.2188 59.2089 55.2231 59.1637 55.8146 58.5163Z" fill="#ED3233"/>
<path d="M73.7758 69.4532C73.7327 69.4668 73.6871 69.4709 73.6423 69.4654C73.5974 69.4598 73.5542 69.4447 73.5157 69.4209L54.4761 57.714C54.4045 57.6698 54.3533 57.599 54.3338 57.5172C54.3143 57.4353 54.3282 57.349 54.3723 57.2774C54.4165 57.2057 54.4873 57.1545 54.5691 57.1351C54.651 57.1156 54.7373 57.1295 54.8089 57.1736L73.8474 68.8841C73.8995 68.9158 73.9414 68.9618 73.968 69.0168C73.9945 69.0717 74.0046 69.1331 73.9971 69.1936C73.9895 69.2542 73.9646 69.3112 73.9253 69.3579C73.8861 69.4046 73.8341 69.4389 73.7758 69.4567V69.4532Z" fill="#ED3233"/>
<path d="M27.3577 65.0862C27.2063 65.1332 27.0722 65.2241 26.9725 65.3474C26.8727 65.4706 26.8117 65.6207 26.7973 65.7786C26.7828 65.9365 26.8155 66.0952 26.8912 66.2345C26.9669 66.3738 27.0823 66.4875 27.2226 66.5613C27.363 66.6351 27.5221 66.6656 27.6798 66.6489C27.8375 66.6323 27.9867 66.5692 28.1085 66.4677C28.2304 66.3663 28.3194 66.231 28.3643 66.0789C28.4093 65.9268 28.4081 65.7649 28.361 65.6135C28.3298 65.5129 28.2791 65.4195 28.2118 65.3385C28.1445 65.2576 28.0619 65.1907 27.9687 65.1417C27.8755 65.0927 27.7736 65.0626 27.6688 65.0531C27.5639 65.0436 27.4582 65.0548 27.3577 65.0862Z" fill="#2D3135"/>
<path d="M62.2851 84.7294C62.3322 84.8808 62.4231 85.0149 62.5463 85.1146C62.6696 85.2144 62.8196 85.2754 62.9775 85.2898C63.1354 85.3043 63.2941 85.2716 63.4334 85.1959C63.5727 85.1202 63.6865 85.0049 63.7602 84.8645C63.834 84.7241 63.8645 84.565 63.8478 84.4074C63.8312 84.2497 63.7681 84.1005 63.6667 83.9786C63.5652 83.8568 63.4299 83.7677 63.2778 83.7228C63.1257 83.6779 62.9638 83.679 62.8124 83.7262C62.6095 83.7893 62.4399 83.9305 62.3411 84.1186C62.2422 84.3067 62.2221 84.5264 62.2851 84.7294Z" fill="#2D3135"/>
<path d="M81.9281 49.7981C82.0795 49.7511 82.2136 49.6602 82.3134 49.5369C82.4131 49.4137 82.4741 49.2636 82.4886 49.1057C82.503 48.9478 82.4703 48.7891 82.3946 48.6498C82.3189 48.5105 82.2036 48.3968 82.0632 48.323C81.9229 48.2492 81.7638 48.2187 81.6061 48.2354C81.4484 48.252 81.2992 48.3151 81.1773 48.4166C81.0555 48.518 80.9665 48.6533 80.9215 48.8054C80.8766 48.9575 80.8778 49.1195 80.9249 49.2709C80.9881 49.4738 81.1292 49.6433 81.3174 49.7422C81.5055 49.841 81.7252 49.8612 81.9281 49.7981Z" fill="#2D3135"/>
<path d="M47.4502 33.1664C48.4266 32.6666 48.8129 31.4698 48.313 30.4934C47.8132 29.517 46.6164 29.1307 45.64 29.6306C44.6636 30.1304 44.2773 31.3272 44.7772 32.3036C45.277 33.28 46.4738 33.6663 47.4502 33.1664Z" fill="#2D3135"/>
<path d="M35.1298 38.3653C35.0177 38.2617 34.8774 38.1936 34.7266 38.1697C34.5758 38.1458 34.4214 38.1671 34.2827 38.231C34.1441 38.2949 34.0275 38.3985 33.9477 38.5287C33.8679 38.6589 33.8286 38.8098 33.8346 38.9623C33.8406 39.1149 33.8917 39.2622 33.9815 39.3857C34.0712 39.5092 34.1956 39.6033 34.3388 39.6561C34.4821 39.7089 34.6378 39.7181 34.7862 39.6824C34.9346 39.6467 35.0692 39.5678 35.1727 39.4556C35.3116 39.3053 35.385 39.106 35.377 38.9016C35.3689 38.6971 35.28 38.5042 35.1298 38.3653Z" fill="#2D3135"/>
<path d="M28.2042 50.6781C28.0553 50.6445 27.8997 50.6559 27.7572 50.7107C27.6148 50.7655 27.4917 50.8614 27.4038 50.9862C27.3158 51.1109 27.2668 51.259 27.2629 51.4116C27.2591 51.5642 27.3006 51.7146 27.3822 51.8436C27.4639 51.9726 27.5819 52.0745 27.7215 52.1364C27.861 52.1984 28.0158 52.2175 28.1662 52.1914C28.3167 52.1654 28.456 52.0953 28.5666 51.9901C28.6772 51.8848 28.754 51.7491 28.7875 51.6002C28.832 51.4006 28.7957 51.1915 28.6863 51.0186C28.577 50.8458 28.4036 50.7233 28.2042 50.6781Z" fill="#2D3135"/>
<path d="M35.5649 76.9579C35.4614 77.0701 35.3935 77.2105 35.3697 77.3613C35.346 77.5121 35.3675 77.6666 35.4316 77.8051C35.4956 77.9437 35.5994 78.0602 35.7296 78.1398C35.8599 78.2194 36.0108 78.2586 36.1634 78.2524C36.3159 78.2463 36.4632 78.195 36.5866 78.1051C36.71 78.0152 36.8039 77.8907 36.8566 77.7474C36.9092 77.6041 36.9182 77.4485 36.8824 77.3001C36.8465 77.1517 36.7675 77.0172 36.6552 76.9138C36.5046 76.7754 36.3053 76.7023 36.101 76.7106C35.8966 76.7189 35.7038 76.8078 35.5649 76.9579Z" fill="#2D3135"/>
<path d="M47.8772 83.8824C47.8437 84.0313 47.8551 84.1868 47.9099 84.3292C47.9648 84.4716 48.0606 84.5945 48.1853 84.6825C48.31 84.7705 48.458 84.8195 48.6106 84.8234C48.7631 84.8273 48.9134 84.7858 49.0424 84.7043C49.1714 84.6228 49.2734 84.5049 49.3354 84.3654C49.3974 84.226 49.4167 84.0713 49.3908 83.9209C49.3649 83.7705 49.295 83.6312 49.19 83.5205C49.0849 83.4098 48.9494 83.3328 48.8005 83.2991C48.6008 83.2542 48.3913 83.2904 48.2182 83.3998C48.0451 83.5091 47.9225 83.6827 47.8772 83.8824Z" fill="#2D3135"/>
<path d="M74.1571 76.5187C74.2692 76.6222 74.4095 76.6901 74.5602 76.7139C74.711 76.7376 74.8654 76.7162 75.0039 76.6522C75.1425 76.5883 75.2589 76.4847 75.3386 76.3546C75.4183 76.2245 75.4577 76.0736 75.4517 75.9211C75.4457 75.7687 75.3946 75.6214 75.3049 75.4979C75.2153 75.3745 75.091 75.2803 74.9479 75.2275C74.8047 75.1746 74.6491 75.1654 74.5007 75.2009C74.3523 75.2365 74.2178 75.3152 74.1141 75.4272C73.9752 75.5777 73.9017 75.7772 73.9098 75.9818C73.9178 76.1865 74.0068 76.3795 74.1571 76.5187Z" fill="#2D3135"/>
<path d="M81.0809 64.2088C81.2298 64.2423 81.3852 64.231 81.5276 64.1761C81.6701 64.1213 81.793 64.0255 81.881 63.9008C81.969 63.7761 82.018 63.6281 82.0219 63.4755C82.0257 63.3229 81.9843 63.1727 81.9028 63.0436C81.8213 62.9146 81.7034 62.8127 81.5639 62.7507C81.4245 62.6887 81.2698 62.6694 81.1194 62.6953C80.969 62.7212 80.8296 62.7911 80.719 62.8961C80.6083 63.0012 80.5312 63.1367 80.4975 63.2856C80.4752 63.3845 80.4725 63.4869 80.4897 63.5868C80.5069 63.6868 80.5437 63.7824 80.5978 63.8681C80.652 63.9539 80.7226 64.0281 80.8054 64.0866C80.8883 64.145 80.9819 64.1866 81.0809 64.2088Z" fill="#2D3135"/>
<path d="M73.7212 37.9296C73.8249 37.8175 73.893 37.6772 73.9169 37.5264C73.9408 37.3756 73.9194 37.2212 73.8555 37.0825C73.7916 36.9439 73.688 36.8273 73.5579 36.7475C73.4277 36.6677 73.2768 36.6284 73.1242 36.6344C72.9717 36.6404 72.8243 36.6915 72.7008 36.7813C72.5774 36.871 72.4833 36.9954 72.4304 37.1386C72.3776 37.2819 72.3685 37.4376 72.4042 37.586C72.4399 37.7344 72.5188 37.869 72.6309 37.9725C72.7814 38.1111 72.9806 38.1843 73.185 38.1763C73.3893 38.1682 73.5822 38.0795 73.7212 37.9296Z" fill="#2D3135"/>
<path d="M61.4083 31.0054C61.442 30.8565 61.4309 30.701 61.3762 30.5584C61.3216 30.4159 61.2259 30.2928 61.1012 30.2046C60.9766 30.1165 60.8286 30.0673 60.676 30.0633C60.5234 30.0592 60.3731 30.1005 60.244 30.1819C60.1148 30.2633 60.0128 30.3812 59.9506 30.5206C59.8885 30.6601 59.8691 30.8148 59.8949 30.9652C59.9207 31.1157 59.9905 31.2551 60.0956 31.3659C60.2006 31.4766 60.3361 31.5538 60.485 31.5875C60.5838 31.6099 60.6861 31.6126 60.786 31.5955C60.8859 31.5783 60.9815 31.5417 61.0672 31.4877C61.1529 31.4336 61.2272 31.3632 61.2857 31.2804C61.3442 31.1977 61.3859 31.1042 61.4083 31.0054Z" fill="#2D3135"/>
<path d="M28.0026 63.6435C27.6277 63.76 27.2956 63.9849 27.0484 64.29C26.8013 64.5951 26.65 64.9665 26.6139 65.3575C26.5778 65.7485 26.6583 66.1414 26.8454 66.4866C27.0324 66.8318 27.3176 67.1138 27.6648 67.297C28.0121 67.4802 28.4059 67.5564 28.7964 67.5159C29.187 67.4754 29.5567 67.3201 29.859 67.0696C30.1613 66.819 30.3826 66.4845 30.4949 66.1083C30.6071 65.732 30.6054 65.331 30.4898 64.9557C30.4129 64.7061 30.2875 64.4741 30.1208 64.2729C29.9542 64.0718 29.7494 63.9056 29.5184 63.7837C29.2874 63.6618 29.0346 63.5867 28.7745 63.5626C28.5144 63.5386 28.2521 63.5661 28.0026 63.6435Z" fill="#2D3135"/>
<path d="M63.8337 85.1469C64.7501 84.544 65.0043 83.3124 64.4014 82.396C63.7985 81.4796 62.5669 81.2254 61.6505 81.8283C60.7341 82.4312 60.4799 83.6628 61.0828 84.5792C61.6857 85.4956 62.9173 85.7498 63.8337 85.1469Z" fill="#2D3135"/>
<path d="M82.6657 49.5894C82.799 48.5006 82.0244 47.5099 80.9356 47.3766C79.8468 47.2433 78.8561 48.0179 78.7228 49.1067C78.5895 50.1955 79.3641 51.1862 80.4529 51.3195C81.5417 51.4528 82.5324 50.6782 82.6657 49.5894Z" fill="#2D3135"/>
<g style="mix-blend-mode:screen">
<g style="mix-blend-mode:screen">
<path d="M71.8191 26.4178C67.5846 24.234 62.9708 22.8824 58.2273 22.4359C48.6913 21.5693 39.2008 24.5199 31.8372 30.6406C28.182 33.6966 25.1469 37.4253 22.8965 41.6247C24.9175 37.258 27.841 33.3692 31.4745 30.2147C33.2915 28.6336 35.2685 27.2463 37.3733 26.0754C41.5981 23.7234 46.2647 22.273 51.0784 21.8156C53.4762 21.5873 55.8914 21.6097 58.2846 21.8825C63.0656 22.4221 67.6782 23.9678 71.8191 26.4178Z" fill="#FF3951"/>
</g>
</g>
<path d="M51.3124 7.63536C51.2623 7.5781 51.8814 6.91367 53.0433 6.019L53.5037 5.67426C53.6648 5.55497 53.8389 5.44284 54.0167 5.31639C54.3745 5.06827 54.7646 4.83208 55.1785 4.578C56.9932 3.50543 58.9429 2.67982 60.9759 2.12304C61.4459 2.00375 61.8909 1.88446 62.3144 1.80215C62.5255 1.75921 62.7283 1.71269 62.9251 1.68287L63.4929 1.59221C64.9435 1.37868 65.8525 1.39657 65.8584 1.47292C65.868 1.56835 64.9793 1.70553 63.5752 2.02522L63.0253 2.15286C62.8345 2.19819 62.6376 2.25545 62.4289 2.30794C62.0185 2.40814 61.5867 2.54651 61.1322 2.67654C60.2268 2.96283 59.2427 3.30996 58.2335 3.73343C57.2243 4.15691 56.2927 4.6281 55.4577 5.0802C55.0449 5.31878 54.6477 5.52992 54.2898 5.75537C54.1097 5.86512 53.932 5.96652 53.7673 6.07268L53.2902 6.37925C52.0913 7.16656 51.3744 7.70813 51.3124 7.63536Z" fill="#5D5F60"/>
<path d="M62.7382 0.0546227C62.774 0.227591 61.2877 0.68208 59.484 1.29761C57.6804 1.91314 56.2239 2.4559 56.1439 2.29605C56.064 2.13621 57.4346 1.3322 59.28 0.707131C61.1254 0.0820592 62.7048 -0.10761 62.7382 0.0546227Z" fill="#5D5F60"/>
<path d="M24.9596 14.9311C24.9537 15.0254 24.1819 15.0373 22.9508 15.1387L22.4677 15.1804C22.3007 15.1948 22.1265 15.221 21.9464 15.2401C21.5885 15.2759 21.2032 15.3379 20.8012 15.3964C19.9984 15.5288 19.1216 15.7053 18.2139 15.9439C17.3061 16.1825 16.4603 16.4735 15.6981 16.7586C15.3199 16.9089 14.9573 17.0449 14.6245 17.194C14.4587 17.2668 14.2952 17.3312 14.1473 17.4016L13.7083 17.6068C12.5906 18.1328 11.919 18.5074 11.8629 18.4275C11.8069 18.3475 12.4152 17.8549 13.5032 17.2155L13.9338 16.971C14.0841 16.8875 14.2463 16.8099 14.4109 16.7252C14.7402 16.5523 15.104 16.3948 15.4845 16.2254C17.156 15.5151 18.9194 15.0445 20.7225 14.8273C21.1376 14.7832 21.5325 14.7391 21.9034 14.7248C22.0883 14.7164 22.2613 14.7021 22.4391 14.6997H22.9341C24.1962 14.7093 24.9644 14.8536 24.9596 14.9311Z" fill="#5D5F60"/>
<path d="M13.899 54.5324C14.0601 54.5515 13.998 55.8696 14.0374 57.9787C14.0438 58.2419 14.0505 58.5174 14.0577 58.8053C14.0637 59.0928 14.0887 59.391 14.103 59.7C14.1245 60.3191 14.1901 60.9764 14.245 61.6694C14.3857 63.0508 14.5933 64.5646 14.9023 66.1368C15.2112 67.709 15.618 69.1822 16.02 70.5111C16.2359 71.172 16.428 71.8042 16.6474 72.3827C16.7524 72.6738 16.8455 72.9589 16.9504 73.2261C17.0554 73.4933 17.1556 73.751 17.251 73.9967C18.0276 75.9578 18.593 77.1495 18.4523 77.2294C18.339 77.295 17.535 76.2274 16.5639 74.3033L16.193 73.5434C16.0653 73.2786 15.9544 72.9947 15.8244 72.7084C15.5655 72.1298 15.3353 71.4917 15.0883 70.8236C14.0588 67.8984 13.4456 64.8429 13.2668 61.747C13.237 61.0312 13.2036 60.3585 13.2203 59.7191C13.2203 59.403 13.2203 59.0964 13.2358 58.8029C13.2513 58.5095 13.2692 58.228 13.2847 57.9584C13.4398 55.81 13.769 54.5145 13.899 54.5324Z" fill="#5D5F60"/>
<path d="M18.5814 14.0448C18.6112 14.164 17.5078 14.547 16.1527 15.0158C14.7976 15.4846 13.6882 15.8508 13.6476 15.7446C13.6071 15.6384 14.6508 15.0933 16.0239 14.6221C17.3969 14.1509 18.5528 13.9362 18.5814 14.0448Z" fill="#5D5F60"/>
<path d="M6.35475 45.3331C6.30823 45.3665 6.14719 45.2293 5.89191 44.9466C5.53785 44.5454 5.21859 44.1148 4.9376 43.6594L4.65489 43.2062C4.56304 43.0451 4.47119 42.8757 4.37456 42.7004C4.32685 42.6121 4.27913 42.5226 4.22903 42.432C4.17893 42.3413 4.13837 42.2447 4.09185 42.1481C4.00119 41.956 3.90218 41.7592 3.81271 41.5516C3.41902 40.6554 3.1041 39.7266 2.87153 38.7758C2.36813 36.7479 2.35739 34.819 2.57569 33.4722C2.79399 32.1254 3.15782 31.3465 3.25206 31.3763C3.37731 31.4121 3.21746 32.2233 3.1614 33.5295C3.09415 35.2307 3.26886 36.9328 3.6803 38.5849C3.90205 39.495 4.18095 40.3903 4.51532 41.2653C4.59167 41.4681 4.67636 41.6614 4.7539 41.8522C4.79207 41.9477 4.83024 42.0407 4.87319 42.1337L4.99248 42.401C5.072 42.5775 5.14835 42.7477 5.22151 42.9115C5.30024 43.0726 5.37539 43.2276 5.44816 43.3744C5.73803 43.9708 5.98973 44.4396 6.16389 44.7688C6.33805 45.0981 6.40127 45.2985 6.35475 45.3331Z" fill="#5D5F60"/>
<path d="M0.875409 38.2863C0.771628 38.3268 0.578381 38.136 0.392291 37.7602C-0.059725 36.7599 -0.123504 35.6271 0.213358 34.5824C0.355311 34.1875 0.525894 33.9764 0.633254 34.005C0.861095 34.073 0.765663 35.0154 0.837236 36.1415C0.908809 37.2676 1.09371 38.1932 0.875409 38.2863Z" fill="#5D5F60"/>
<path d="M89.8494 18.5779C89.7301 18.5993 89.5023 17.7739 89.0824 16.4772C89.0287 16.315 88.9726 16.1456 88.9154 15.969C88.8581 15.7925 88.7865 15.6111 88.7209 15.4227C88.5933 15.0445 88.4334 14.6485 88.2724 14.2298C87.936 13.3948 87.5376 12.4953 87.07 11.572C86.6024 10.6487 86.0989 9.80061 85.6242 9.03955C85.3784 8.66379 85.147 8.30115 84.9192 7.97549C84.8059 7.81207 84.6997 7.64864 84.5911 7.49834L84.2774 7.06532C83.4746 5.9631 82.9378 5.29747 83.0261 5.21158C83.1144 5.12569 83.7919 5.6613 84.7343 6.69434L85.0922 7.10469C85.2174 7.24784 85.3379 7.4053 85.4679 7.56514C85.7303 7.88126 85.9844 8.23912 86.2552 8.61488C86.8269 9.44043 87.3449 10.3019 87.806 11.1939C88.2588 12.0903 88.6528 13.0151 88.9857 13.9626C89.1313 14.4016 89.272 14.8179 89.3746 15.2163C89.4271 15.4155 89.4832 15.6052 89.5261 15.7913C89.5691 15.9774 89.6072 16.1563 89.6454 16.3269C89.9341 17.6939 89.952 18.5612 89.8494 18.5779Z" fill="#5D5F60"/>
<path d="M91.613 14.7689C91.3744 14.8238 90.8113 13.0249 89.7043 11.0245C88.6117 9.01327 87.3973 7.56511 87.5703 7.40049C87.649 7.32415 88.0641 7.59135 88.6188 8.15081C88.9416 8.47964 89.2417 8.82996 89.5171 9.19936C89.8513 9.65396 90.1557 10.1297 90.4284 10.6237C90.7005 11.12 90.9396 11.6336 91.1442 12.1613C91.3088 12.5917 91.4435 13.0329 91.5474 13.4818C91.7167 14.25 91.7203 14.7439 91.613 14.7689Z" fill="#5D5F60"/>
<path d="M10.8638 70.196C10.7612 70.2354 10.4808 69.8036 10.1826 69.0389C10.0111 68.5896 9.8685 68.1298 9.75556 67.6623C9.47821 66.5148 9.35426 65.3354 9.38696 64.1553C9.39973 63.6758 9.44317 63.1977 9.51699 62.7238C9.6494 61.9126 9.83429 61.4331 9.94284 61.4486C10.1814 61.4856 10.0216 63.4527 10.2828 65.836C10.519 68.2182 11.0868 70.1078 10.8638 70.196Z" fill="#5D5F60"/>
<path d="M96.4683 66.6245C96.3836 66.6078 96.3896 66.0973 96.4683 65.1931C96.491 64.9688 96.516 64.7159 96.5434 64.4451C96.5709 64.1743 96.5816 63.8737 96.6067 63.554C96.6484 62.9146 96.7259 62.193 96.7498 61.3878C96.7677 60.9869 96.7868 60.5659 96.8071 60.1281C96.8273 59.6903 96.8154 59.2346 96.8226 58.7634C96.8226 58.5248 96.8226 58.2863 96.8226 58.0477C96.8226 57.9284 96.8226 57.8091 96.8226 57.6791C96.8226 57.5491 96.8142 57.431 96.8095 57.3057C96.7935 56.8031 96.7772 56.2862 96.7605 55.755C96.5483 51.1607 95.7464 46.6127 94.3748 42.2229C94.2086 41.7195 94.0475 41.2288 93.8917 40.7509L93.7724 40.393C93.7318 40.2737 93.6865 40.1616 93.6447 40.047C93.5588 39.8188 93.4749 39.5945 93.393 39.3743C93.2248 38.9329 93.0793 38.4999 92.9159 38.0955C92.7524 37.6911 92.5866 37.3022 92.4316 36.9312C92.1405 36.1821 91.816 35.5308 91.5584 34.9439C91.426 34.6528 91.3103 34.3773 91.1945 34.128C91.0788 33.8786 90.9667 33.6508 90.8677 33.4516C90.4848 32.6321 90.3047 32.1549 90.3786 32.1108C90.4526 32.0667 90.7723 32.4579 91.2912 33.2118L91.7158 33.844C91.8649 34.0826 92.0129 34.3415 92.1763 34.6218C92.4972 35.186 92.8825 35.8219 93.232 36.5614L93.7998 37.715C93.9942 38.117 94.166 38.55 94.3581 38.9913C94.4523 39.2132 94.5489 39.4387 94.6456 39.6689C94.6933 39.7882 94.7458 39.8979 94.7911 40.016C94.8364 40.1341 94.8782 40.2546 94.9235 40.3739L95.4663 41.8626C97.0046 46.3249 97.8326 51.0011 97.92 55.7204C97.92 56.2619 97.92 56.794 97.92 57.3045C97.92 57.4333 97.92 57.561 97.92 57.6874C97.92 57.8139 97.9081 57.9391 97.9033 58.0632C97.889 58.3113 97.8771 58.557 97.864 58.7968C97.8329 59.274 97.8198 59.744 97.7757 60.1889C97.7316 60.6339 97.6803 61.0597 97.6349 61.4665C97.5598 62.2812 97.4142 63.0089 97.3057 63.6495C97.2472 63.9692 97.1971 64.2662 97.1387 64.5382C97.0802 64.8101 97.0099 65.0547 96.9538 65.2766C96.72 66.1629 96.553 66.6412 96.4683 66.6245Z" fill="#5D5F60"/>
<path d="M100.856 63.0926C100.625 63.0199 101.07 61.0981 101.159 58.7016C101.268 56.3063 100.982 54.3536 101.219 54.3011C101.326 54.2784 101.541 54.746 101.724 55.5465C101.829 56.0155 101.903 56.4909 101.946 56.9696C102.052 58.1451 102.003 59.3294 101.801 60.4922C101.718 60.9658 101.605 61.4336 101.462 61.8926C101.214 62.6811 100.961 63.1237 100.856 63.0926Z" fill="#5D5F60"/>
</svg>
